<mxfile host="app.diagrams.net" agent="Mozilla/5.0 (X11; Linux x86_64; rv:134.0) Gecko/20100101 Firefox/134.0" version="26.0.11" pages="40">
  <diagram name="UC 1" id="FBXF3LcX2CokIacLax4o">
    <mxGraphModel dx="1834" dy="738" grid="0" gridSize="10" guides="1" tooltips="1" connect="1" arrows="1" fold="1" page="0" pageScale="1" pageWidth="850" pageHeight="1100" math="0" shadow="0">
      <root>
        <mxCell id="0" />
        <mxCell id="1" parent="0" />
        <mxCell id="4k7AtwofX8zsXD5LKQmq-1" value="Utente Finale" style="shape=umlActor;verticalLabelPosition=bottom;verticalAlign=top;html=1;outlineConnect=0;fontSize=10;" vertex="1" parent="1">
          <mxGeometry x="10" y="291" width="30" height="60" as="geometry" />
        </mxCell>
        <mxCell id="4k7AtwofX8zsXD5LKQmq-2" value="" style="rounded=0;whiteSpace=wrap;html=1;fontSize=10;" vertex="1" parent="1">
          <mxGeometry x="140" y="280" width="200" height="80" as="geometry" />
        </mxCell>
        <mxCell id="4k7AtwofX8zsXD5LKQmq-3" value="&lt;font style=&quot;font-size: 18px;&quot;&gt;3Dataviz&lt;/font&gt;" style="text;html=1;align=center;verticalAlign=middle;resizable=0;points=[];autosize=1;strokeColor=none;fillColor=none;fontSize=10;" vertex="1" parent="1">
          <mxGeometry x="140" y="246" width="87" height="34" as="geometry" />
        </mxCell>
        <mxCell id="4k7AtwofX8zsXD5LKQmq-4" value="" style="line;strokeWidth=1;fillColor=none;align=left;verticalAlign=middle;spacingTop=-1;spacingLeft=3;spacingRight=3;rotatable=0;labelPosition=right;points=[];portConstraint=eastwest;strokeColor=inherit;fontSize=10;" vertex="1" parent="1">
          <mxGeometry x="40" y="318" width="150" height="8" as="geometry" />
        </mxCell>
        <mxCell id="4k7AtwofX8zsXD5LKQmq-5" value="&lt;span style=&quot;font-size: 10px;&quot;&gt;UC1 - Visualizzazione interattiva dei dati&lt;/span&gt;" style="ellipse;whiteSpace=wrap;html=1;" vertex="1" parent="1">
          <mxGeometry x="190" y="286" width="140" height="70" as="geometry" />
        </mxCell>
      </root>
    </mxGraphModel>
  </diagram>
  <diagram name="UC 2" id="RQSj-u7L2PEiE7qPK5VA">
    <mxGraphModel dx="2261" dy="738" grid="1" gridSize="10" guides="1" tooltips="1" connect="1" arrows="1" fold="1" page="1" pageScale="1" pageWidth="827" pageHeight="1169" math="0" shadow="0">
      <root>
        <mxCell id="oWV2-GE9bfTv1E0-xdSE-0" />
        <mxCell id="oWV2-GE9bfTv1E0-xdSE-1" parent="oWV2-GE9bfTv1E0-xdSE-0" />
        <mxCell id="oWV2-GE9bfTv1E0-xdSE-2" value="" style="rounded=0;whiteSpace=wrap;html=1;fontSize=10;" parent="oWV2-GE9bfTv1E0-xdSE-1" vertex="1">
          <mxGeometry x="-160" y="190" width="910" height="360" as="geometry" />
        </mxCell>
        <mxCell id="oWV2-GE9bfTv1E0-xdSE-4" value="Utente Finale" style="shape=umlActor;verticalLabelPosition=bottom;verticalAlign=top;html=1;outlineConnect=0;fontSize=10;" parent="oWV2-GE9bfTv1E0-xdSE-1" vertex="1">
          <mxGeometry x="-250" y="255" width="30" height="60" as="geometry" />
        </mxCell>
        <mxCell id="oWV2-GE9bfTv1E0-xdSE-5" value="&lt;font style=&quot;font-size: 18px;&quot;&gt;3Dataviz&lt;/font&gt;" style="text;html=1;align=center;verticalAlign=middle;resizable=0;points=[];autosize=1;strokeColor=none;fillColor=none;fontSize=10;" parent="oWV2-GE9bfTv1E0-xdSE-1" vertex="1">
          <mxGeometry x="-160" y="150" width="90" height="40" as="geometry" />
        </mxCell>
        <mxCell id="oWV2-GE9bfTv1E0-xdSE-6" value="" style="line;strokeWidth=1;fillColor=none;align=left;verticalAlign=middle;spacingTop=-1;spacingLeft=3;spacingRight=3;rotatable=0;labelPosition=right;points=[];portConstraint=eastwest;strokeColor=inherit;fontSize=10;" parent="oWV2-GE9bfTv1E0-xdSE-1" vertex="1">
          <mxGeometry x="-220" y="285" width="270" height="8" as="geometry" />
        </mxCell>
        <mxCell id="oWV2-GE9bfTv1E0-xdSE-19" value="&lt;br&gt;extension points&lt;br&gt;&lt;span&gt;&amp;nbsp;Errore&amp;nbsp;&lt;/span&gt;tooMuchData&lt;span&gt;,&amp;nbsp;&lt;/span&gt;&lt;div&gt;Errore ApiTimeout&lt;/div&gt;" style="html=1;shape=mxgraph.sysml.useCaseExtPt;whiteSpace=wrap;align=center;fontSize=10;" parent="oWV2-GE9bfTv1E0-xdSE-1" vertex="1">
          <mxGeometry x="130" y="400" width="310" height="130" as="geometry" />
        </mxCell>
        <mxCell id="oWV2-GE9bfTv1E0-xdSE-20" value="" style="resizable=0;html=1;verticalAlign=middle;align=center;labelBackgroundColor=none;fontStyle=1;fontSize=10;" parent="oWV2-GE9bfTv1E0-xdSE-19" connectable="0" vertex="1">
          <mxGeometry x="94.31007055169505" y="27.625" as="geometry" />
        </mxCell>
        <mxCell id="oWV2-GE9bfTv1E0-xdSE-21" value="&lt;div&gt;UC 2.2 - Caricamento automatico dati tramite&lt;/div&gt;&lt;div&gt;chiamata all&#39;API esterna Weather Forecast&lt;/div&gt;" style="text;html=1;align=center;verticalAlign=middle;resizable=0;points=[];autosize=1;strokeColor=none;fillColor=none;fontSize=10;" parent="oWV2-GE9bfTv1E0-xdSE-19" vertex="1">
          <mxGeometry x="39.997107097687035" y="7.621052631578948" width="230" height="40" as="geometry" />
        </mxCell>
        <mxCell id="oWV2-GE9bfTv1E0-xdSE-23" value="&lt;br&gt;&lt;div&gt;&lt;br&gt;&lt;/div&gt;&lt;div&gt;extension points&lt;/div&gt;&lt;div&gt;&lt;span&gt;&amp;nbsp;&lt;/span&gt;&amp;nbsp;Errore&amp;nbsp;tooMuchData,&lt;/div&gt;&lt;div&gt;Errore fileTooBig,&lt;/div&gt;&lt;div&gt;Errore invalidCsv &lt;br&gt;&lt;/div&gt;&lt;div&gt;&lt;br&gt;&lt;/div&gt;" style="html=1;shape=mxgraph.sysml.useCaseExtPt;whiteSpace=wrap;align=center;fontSize=10;" parent="oWV2-GE9bfTv1E0-xdSE-1" vertex="1">
          <mxGeometry x="460" y="215" width="275" height="140" as="geometry" />
        </mxCell>
        <mxCell id="oWV2-GE9bfTv1E0-xdSE-24" value="" style="resizable=0;html=1;verticalAlign=middle;align=center;labelBackgroundColor=none;fontStyle=1;fontSize=10;" parent="oWV2-GE9bfTv1E0-xdSE-23" connectable="0" vertex="1">
          <mxGeometry x="134.80392156862743" y="29.749999999999996" as="geometry" />
        </mxCell>
        <mxCell id="oWV2-GE9bfTv1E0-xdSE-25" value="UC 2.4 - Caricamento automatico dati tramite file .csv" style="text;html=1;align=center;verticalAlign=middle;resizable=0;points=[];autosize=1;strokeColor=none;fillColor=none;fontSize=10;" parent="oWV2-GE9bfTv1E0-xdSE-23" vertex="1">
          <mxGeometry x="7.497843137254903" y="20.740740740740737" width="260" height="30" as="geometry" />
        </mxCell>
        <mxCell id="oWV2-GE9bfTv1E0-xdSE-35" value="&lt;br&gt;&lt;div&gt;&lt;br&gt;&lt;/div&gt;&lt;div&gt;Caricamento manuale tramite interfaccia&lt;br&gt;&lt;/div&gt;&lt;div&gt;Caricamento tramite chiamta API&lt;/div&gt;&lt;div&gt;Caricamento tramite connesione a database SQL&lt;/div&gt;&lt;div&gt;Caricamento tramite file .csv&lt;/div&gt;" style="html=1;shape=mxgraph.sysml.useCaseExtPt;whiteSpace=wrap;align=center;fontSize=10;" parent="oWV2-GE9bfTv1E0-xdSE-1" vertex="1">
          <mxGeometry x="30" y="219" width="310" height="140" as="geometry" />
        </mxCell>
        <mxCell id="oWV2-GE9bfTv1E0-xdSE-36" value="" style="resizable=0;html=1;verticalAlign=middle;align=center;labelBackgroundColor=none;fontStyle=1;" parent="oWV2-GE9bfTv1E0-xdSE-35" connectable="0" vertex="1">
          <mxGeometry x="149.65517241379308" y="29.75" as="geometry" />
        </mxCell>
        <mxCell id="oWV2-GE9bfTv1E0-xdSE-37" value="&lt;span style=&quot;font-family: Helvetica; font-size: 10px; font-style: normal; font-variant-ligatures: normal; font-variant-caps: normal; font-weight: 400; letter-spacing: normal; orphans: 2; text-align: center; text-indent: 0px; text-transform: none; widows: 2; word-spacing: 0px; -webkit-text-stroke-width: 0px; white-space: normal; text-decoration-thickness: initial; text-decoration-style: initial; text-decoration-color: initial; float: none; display: inline !important;&quot;&gt;&lt;font style=&quot;color: rgb(0, 0, 0);&quot;&gt;UC 2 - Caricamento dati per la generazione del grafico&lt;/font&gt;&lt;/span&gt;" style="text;whiteSpace=wrap;html=1;" parent="oWV2-GE9bfTv1E0-xdSE-35" vertex="1">
          <mxGeometry x="30.000344827586204" y="21" width="287.82965517241377" height="32.31" as="geometry" />
        </mxCell>
        <mxCell id="oWV2-GE9bfTv1E0-xdSE-39" value="" style="html=1;verticalAlign=bottom;labelBackgroundColor=none;endArrow=block;endFill=0;rounded=0;entryX=1;entryY=0.5;entryDx=0;entryDy=0;entryPerimeter=0;exitX=0;exitY=0.5;exitDx=0;exitDy=0;exitPerimeter=0;" parent="oWV2-GE9bfTv1E0-xdSE-1" source="oWV2-GE9bfTv1E0-xdSE-23" target="oWV2-GE9bfTv1E0-xdSE-35" edge="1">
          <mxGeometry width="160" relative="1" as="geometry">
            <mxPoint x="640" y="220" as="sourcePoint" />
            <mxPoint x="390" y="360" as="targetPoint" />
          </mxGeometry>
        </mxCell>
        <mxCell id="oWV2-GE9bfTv1E0-xdSE-41" value="" style="html=1;verticalAlign=bottom;labelBackgroundColor=none;endArrow=block;endFill=0;rounded=0;entryX=0.5;entryY=1;entryDx=0;entryDy=0;entryPerimeter=0;exitX=0.5;exitY=0;exitDx=0;exitDy=0;exitPerimeter=0;" parent="oWV2-GE9bfTv1E0-xdSE-1" source="oWV2-GE9bfTv1E0-xdSE-19" target="oWV2-GE9bfTv1E0-xdSE-35" edge="1">
          <mxGeometry width="160" relative="1" as="geometry">
            <mxPoint x="330" y="390" as="sourcePoint" />
            <mxPoint x="490" y="390" as="targetPoint" />
          </mxGeometry>
        </mxCell>
        <mxCell id="oWV2-GE9bfTv1E0-xdSE-53" value="UC 2.1 Caricamento dati manuale tramite interfaccia&lt;br&gt;extension points&lt;br&gt;&lt;span&gt;&amp;nbsp;&lt;/span&gt;&amp;nbsp;Errore&amp;nbsp;tooMuchData,&amp;nbsp;&lt;div&gt;Errore emptyfield&lt;/div&gt;&lt;div&gt;Errore invalidArguments&lt;/div&gt;" style="html=1;shape=mxgraph.sysml.useCaseExtPt;whiteSpace=wrap;align=center;fontSize=10;" parent="oWV2-GE9bfTv1E0-xdSE-1" vertex="1">
          <mxGeometry x="-150" y="387.5" width="270" height="120" as="geometry" />
        </mxCell>
        <mxCell id="oWV2-GE9bfTv1E0-xdSE-54" value="" style="resizable=0;html=1;verticalAlign=middle;align=center;labelBackgroundColor=none;fontStyle=1;fontSize=10;" parent="oWV2-GE9bfTv1E0-xdSE-53" connectable="0" vertex="1">
          <mxGeometry x="135" y="25.499999999999993" as="geometry" />
        </mxCell>
        <mxCell id="oWV2-GE9bfTv1E0-xdSE-38" value="" style="html=1;verticalAlign=bottom;labelBackgroundColor=none;endArrow=block;endFill=0;rounded=0;entryX=0.264;entryY=0.954;entryDx=0;entryDy=0;entryPerimeter=0;exitX=0.393;exitY=0.014;exitDx=0;exitDy=0;exitPerimeter=0;" parent="oWV2-GE9bfTv1E0-xdSE-1" source="oWV2-GE9bfTv1E0-xdSE-53" target="oWV2-GE9bfTv1E0-xdSE-35" edge="1">
          <mxGeometry x="-0.0024" width="160" relative="1" as="geometry">
            <mxPoint x="-41.12000000000003" y="430" as="sourcePoint" />
            <mxPoint x="130.00000000000009" y="341.34" as="targetPoint" />
            <mxPoint as="offset" />
          </mxGeometry>
        </mxCell>
        <mxCell id="oWV2-GE9bfTv1E0-xdSE-40" value="" style="html=1;verticalAlign=bottom;labelBackgroundColor=none;endArrow=block;endFill=0;rounded=0;entryX=0.921;entryY=0.773;entryDx=0;entryDy=0;entryPerimeter=0;exitX=0.145;exitY=0.145;exitDx=0;exitDy=0;exitPerimeter=0;" parent="oWV2-GE9bfTv1E0-xdSE-1" source="8IE8QZip2iyicDp-zOuy-0" target="oWV2-GE9bfTv1E0-xdSE-35" edge="1">
          <mxGeometry width="160" relative="1" as="geometry">
            <mxPoint x="507.1199999999999" y="400.44999999999993" as="sourcePoint" />
            <mxPoint x="296.8599999999999" y="325.01000000000005" as="targetPoint" />
          </mxGeometry>
        </mxCell>
        <mxCell id="8IE8QZip2iyicDp-zOuy-0" value="extension points&lt;br&gt;&lt;span&gt;&amp;nbsp;&lt;/span&gt;&amp;nbsp;Errore networkError" style="html=1;shape=mxgraph.sysml.useCaseExtPt;whiteSpace=wrap;align=center;fontSize=10;" parent="oWV2-GE9bfTv1E0-xdSE-1" vertex="1">
          <mxGeometry x="450" y="380" width="280" height="135" as="geometry" />
        </mxCell>
        <mxCell id="8IE8QZip2iyicDp-zOuy-1" value="" style="resizable=0;html=1;verticalAlign=middle;align=center;labelBackgroundColor=none;fontStyle=1;fontSize=10;" parent="8IE8QZip2iyicDp-zOuy-0" connectable="0" vertex="1">
          <mxGeometry x="117.03984644372146" y="28.687500000000004" as="geometry" />
        </mxCell>
        <mxCell id="8IE8QZip2iyicDp-zOuy-2" value="&lt;div&gt;&lt;font&gt;UC 2.3 - Caricamento automatico dati&lt;/font&gt;&lt;/div&gt;&lt;div&gt;&lt;font&gt;tramite connessione a database SQL&lt;/font&gt;&lt;/div&gt;" style="text;html=1;align=center;verticalAlign=middle;resizable=0;points=[];autosize=1;strokeColor=none;fillColor=none;fontSize=10;" parent="8IE8QZip2iyicDp-zOuy-0" vertex="1">
          <mxGeometry x="53.176777592067815" y="14.999999999999998" width="200" height="40" as="geometry" />
        </mxCell>
      </root>
    </mxGraphModel>
  </diagram>
  <diagram name="UC 2.1" id="vQ74eBIbEXUSkqg7wuBT">
    <mxGraphModel dx="1434" dy="738" grid="1" gridSize="10" guides="1" tooltips="1" connect="1" arrows="1" fold="1" page="1" pageScale="1" pageWidth="827" pageHeight="1169" math="0" shadow="0">
      <root>
        <mxCell id="0" />
        <mxCell id="1" parent="0" />
        <mxCell id="ZYoC5mWqRJ7q36Q1Qch0-1" value="" style="rounded=0;whiteSpace=wrap;html=1;fontSize=10;" parent="1" vertex="1">
          <mxGeometry x="90" y="210" width="860" height="490" as="geometry" />
        </mxCell>
        <mxCell id="ZYoC5mWqRJ7q36Q1Qch0-2" value="&lt;font style=&quot;font-size: 18px;&quot;&gt;UC 2&lt;/font&gt;" style="text;html=1;align=center;verticalAlign=middle;resizable=0;points=[];autosize=1;strokeColor=none;fillColor=none;fontSize=10;" parent="1" vertex="1">
          <mxGeometry x="90" y="170" width="60" height="40" as="geometry" />
        </mxCell>
        <mxCell id="4lsPGIbdSRMlEXjGIssL-4" value="&amp;lt;&amp;lt;include&amp;gt;&amp;gt;" style="html=1;verticalAlign=bottom;endArrow=open;dashed=1;endSize=8;curved=0;rounded=0;exitX=0.5;exitY=1;exitDx=0;exitDy=0;entryX=0.5;entryY=0;entryDx=0;entryDy=0;fontSize=10;entryPerimeter=0;" parent="1" target="oIu9LHOYt_KpPwYIAAGa-1" edge="1">
          <mxGeometry x="0.0115" relative="1" as="geometry">
            <mxPoint x="386.25" y="470" as="sourcePoint" />
            <mxPoint x="190" y="600" as="targetPoint" />
            <mxPoint as="offset" />
          </mxGeometry>
        </mxCell>
        <mxCell id="4lsPGIbdSRMlEXjGIssL-5" value="&amp;lt;&amp;lt;include&amp;gt;&amp;gt;" style="html=1;verticalAlign=bottom;endArrow=open;dashed=1;endSize=8;curved=0;rounded=0;exitX=0.5;exitY=1;exitDx=0;exitDy=0;entryX=0.5;entryY=0;entryDx=0;entryDy=0;fontSize=10;entryPerimeter=0;" parent="1" target="pPNUp2FZSD2IIAIyedWi-1" edge="1">
          <mxGeometry relative="1" as="geometry">
            <mxPoint x="386.25" y="470" as="sourcePoint" />
            <mxPoint x="421" y="570" as="targetPoint" />
          </mxGeometry>
        </mxCell>
        <mxCell id="4lsPGIbdSRMlEXjGIssL-7" value="&amp;lt;&amp;lt;include&amp;gt;&amp;gt;" style="html=1;verticalAlign=bottom;endArrow=open;dashed=1;endSize=8;curved=0;rounded=0;exitX=0.5;exitY=1;exitDx=0;exitDy=0;entryX=0.246;entryY=0.071;entryDx=0;entryDy=0;fontSize=10;entryPerimeter=0;" parent="1" target="pPNUp2FZSD2IIAIyedWi-3" edge="1">
          <mxGeometry relative="1" as="geometry">
            <mxPoint x="386.25" y="470" as="sourcePoint" />
            <mxPoint x="641" y="600" as="targetPoint" />
          </mxGeometry>
        </mxCell>
        <mxCell id="RHf3iU4P5g1kpWJW2chd-1" value="Utente Finale" style="shape=umlActor;verticalLabelPosition=bottom;verticalAlign=top;html=1;outlineConnect=0;fontSize=10;" parent="1" vertex="1">
          <mxGeometry x="24" y="395" width="30" height="60" as="geometry" />
        </mxCell>
        <mxCell id="RHf3iU4P5g1kpWJW2chd-3" value="" style="line;strokeWidth=1;fillColor=none;align=left;verticalAlign=middle;spacingTop=-1;spacingLeft=3;spacingRight=3;rotatable=0;labelPosition=right;points=[];portConstraint=eastwest;strokeColor=inherit;fontSize=10;" parent="1" vertex="1">
          <mxGeometry x="54" y="421" width="234" height="8" as="geometry" />
        </mxCell>
        <mxCell id="ntZ77pl01Q4IRzydkYcP-1" value="&amp;nbsp;UC 22 - Visualizzazione errore tooMuchData" style="ellipse;whiteSpace=wrap;html=1;fontSize=10;" parent="1" vertex="1">
          <mxGeometry x="344" y="220" width="140" height="70" as="geometry" />
        </mxCell>
        <mxCell id="ntZ77pl01Q4IRzydkYcP-2" value="&lt;font&gt;condition: Se l&#39;utente inserisce più dati di quelli che l&#39;applicazione riesce a gestire viene avvisato graficamente&lt;/font&gt;&lt;div&gt;&lt;font&gt;extension point: Errore tooMuchData&lt;br&gt;&lt;/font&gt;&lt;div&gt;&lt;br&gt;&lt;/div&gt;&lt;/div&gt;" style="shape=note;size=15;align=left;spacingLeft=10;html=1;whiteSpace=wrap;fontSize=10;" parent="1" vertex="1">
          <mxGeometry x="102.25" y="230" width="213.5" height="80" as="geometry" />
        </mxCell>
        <mxCell id="ntZ77pl01Q4IRzydkYcP-3" value="&amp;lt;&amp;lt;extend&amp;gt;&amp;gt;" style="html=1;verticalAlign=bottom;endArrow=open;dashed=1;endSize=8;curved=0;rounded=0;exitX=0.5;exitY=1;exitDx=0;exitDy=0;fontSize=10;entryX=0.145;entryY=0.145;entryDx=0;entryDy=0;entryPerimeter=0;" parent="1" source="ntZ77pl01Q4IRzydkYcP-1" target="DEjrVZED9TpcQoU9JV5D-1" edge="1">
          <mxGeometry x="0.0015" relative="1" as="geometry">
            <mxPoint x="517.5" y="795" as="sourcePoint" />
            <mxPoint x="417.5" y="760" as="targetPoint" />
            <mxPoint as="offset" />
          </mxGeometry>
        </mxCell>
        <mxCell id="DEjrVZED9TpcQoU9JV5D-1" value="UC 2.1 Caricamento dati manuale tramite interfaccia&lt;br&gt;&lt;br&gt;&lt;div&gt;extension points&lt;br&gt;&lt;span&gt;&amp;nbsp;&lt;/span&gt;&amp;nbsp;Errore&amp;nbsp;tooMuchData,&amp;nbsp;&lt;div&gt;Errore emptyField,&lt;/div&gt;&lt;/div&gt;&lt;div&gt;Errore invalidArguments&lt;br&gt;&lt;/div&gt;" style="html=1;shape=mxgraph.sysml.useCaseExtPt;whiteSpace=wrap;align=center;fontSize=10;" parent="1" vertex="1">
          <mxGeometry x="270" y="360" width="270" height="120" as="geometry" />
        </mxCell>
        <mxCell id="DEjrVZED9TpcQoU9JV5D-2" value="" style="resizable=0;html=1;verticalAlign=middle;align=center;labelBackgroundColor=none;fontStyle=1;fontSize=10;" parent="DEjrVZED9TpcQoU9JV5D-1" connectable="0" vertex="1">
          <mxGeometry x="135" y="25.499999999999993" as="geometry" />
        </mxCell>
        <mxCell id="6OBqy6slPzv3W0mvLOAZ-1" value="" style="endArrow=none;dashed=1;html=1;rounded=0;fontSize=10;entryX=0.999;entryY=0.935;entryDx=0;entryDy=0;entryPerimeter=0;exitX=0.106;exitY=0.298;exitDx=0;exitDy=0;exitPerimeter=0;" parent="1" source="6OBqy6slPzv3W0mvLOAZ-2" target="ntZ77pl01Q4IRzydkYcP-2" edge="1">
          <mxGeometry width="50" height="50" relative="1" as="geometry">
            <mxPoint x="330" y="350" as="sourcePoint" />
            <mxPoint x="270" y="330" as="targetPoint" />
          </mxGeometry>
        </mxCell>
        <mxCell id="6OBqy6slPzv3W0mvLOAZ-2" value="" style="ellipse;whiteSpace=wrap;html=1;aspect=fixed;fontSize=10;" parent="1" vertex="1">
          <mxGeometry x="344" y="340" width="10" height="10" as="geometry" />
        </mxCell>
        <mxCell id="B_FfrfIVK0vZOkxUAVHg-1" value="UC 25 - Visualizzazione errore emptyField" style="ellipse;whiteSpace=wrap;html=1;fontSize=10;" parent="1" vertex="1">
          <mxGeometry x="530" y="220" width="140" height="70" as="geometry" />
        </mxCell>
        <mxCell id="B_FfrfIVK0vZOkxUAVHg-2" value="&amp;lt;&amp;lt;extend&amp;gt;&amp;gt;" style="html=1;verticalAlign=bottom;labelBackgroundColor=none;endArrow=open;endFill=0;dashed=1;rounded=0;fontSize=10;entryX=0.855;entryY=0.145;entryDx=0;entryDy=0;entryPerimeter=0;exitX=0;exitY=1;exitDx=0;exitDy=0;" parent="1" source="B_FfrfIVK0vZOkxUAVHg-1" target="DEjrVZED9TpcQoU9JV5D-1" edge="1">
          <mxGeometry x="-0.4531" y="8" width="160" relative="1" as="geometry">
            <mxPoint x="720" y="308" as="sourcePoint" />
            <mxPoint x="936.0000000000001" y="370" as="targetPoint" />
            <mxPoint as="offset" />
          </mxGeometry>
        </mxCell>
        <mxCell id="B_FfrfIVK0vZOkxUAVHg-3" value="&lt;font&gt;condition: Se l&#39;utente inserisce almeno un valore nullo viene avvisato graficamente&lt;/font&gt;&lt;div&gt;&lt;font&gt;extension point: errore&amp;nbsp;&lt;span style=&quot;text-align: center;&quot;&gt;emptyField&lt;/span&gt;&lt;br&gt;&lt;/font&gt;&lt;div&gt;&lt;br&gt;&lt;/div&gt;&lt;/div&gt;" style="shape=note;size=15;align=left;spacingLeft=10;html=1;whiteSpace=wrap;fontSize=10;" parent="1" vertex="1">
          <mxGeometry x="700" y="220" width="213.5" height="80" as="geometry" />
        </mxCell>
        <mxCell id="B_FfrfIVK0vZOkxUAVHg-4" value="" style="endArrow=none;dashed=1;html=1;rounded=0;fontSize=10;entryX=0;entryY=1;entryDx=0;entryDy=0;entryPerimeter=0;exitX=0.5;exitY=1;exitDx=0;exitDy=0;" parent="1" source="8U8rc1aoaTRoJ-zIgWWF-2" target="B_FfrfIVK0vZOkxUAVHg-3" edge="1">
          <mxGeometry width="50" height="50" relative="1" as="geometry">
            <mxPoint x="650" y="330" as="sourcePoint" />
            <mxPoint x="719.9994999999999" y="349.9999999999999" as="targetPoint" />
          </mxGeometry>
        </mxCell>
        <mxCell id="8U8rc1aoaTRoJ-zIgWWF-2" value="" style="ellipse;whiteSpace=wrap;html=1;aspect=fixed;fontSize=10;" parent="1" vertex="1">
          <mxGeometry x="520" y="330" width="10" height="10" as="geometry" />
        </mxCell>
        <mxCell id="oIu9LHOYt_KpPwYIAAGa-1" value="UC 2.1.1 L&#39;utente inserisce il campo x&lt;div&gt;extension points&lt;div&gt;Errore emptyField,&lt;/div&gt;&lt;div&gt;Errore invalidArguments&lt;br&gt;&lt;/div&gt;&lt;div&gt;&lt;br&gt;&lt;/div&gt;&lt;/div&gt;" style="html=1;shape=mxgraph.sysml.useCaseExtPt;whiteSpace=wrap;align=center;fontSize=10;" parent="1" vertex="1">
          <mxGeometry x="108" y="580" width="202" height="110" as="geometry" />
        </mxCell>
        <mxCell id="oIu9LHOYt_KpPwYIAAGa-2" value="" style="resizable=0;html=1;verticalAlign=middle;align=center;labelBackgroundColor=none;fontStyle=1;fontSize=10;" parent="oIu9LHOYt_KpPwYIAAGa-1" connectable="0" vertex="1">
          <mxGeometry x="101.00000000000001" y="23.374999999999996" as="geometry" />
        </mxCell>
        <mxCell id="oIu9LHOYt_KpPwYIAAGa-4" value="" style="resizable=0;html=1;verticalAlign=middle;align=center;labelBackgroundColor=none;fontStyle=1;fontSize=10;" parent="1" connectable="0" vertex="1">
          <mxGeometry x="641" y="617" as="geometry" />
        </mxCell>
        <mxCell id="uDXy11mLkWCe7fck7Lip-1" value="UC 21 - Visualizzazione errore invalidArguments" style="ellipse;whiteSpace=wrap;html=1;fontSize=10;" parent="1" vertex="1">
          <mxGeometry x="710.0000000000001" y="340" width="140" height="70" as="geometry" />
        </mxCell>
        <mxCell id="uDXy11mLkWCe7fck7Lip-2" value="&amp;lt;&amp;lt;extend&amp;gt;&amp;gt;" style="html=1;verticalAlign=bottom;labelBackgroundColor=none;endArrow=open;endFill=0;dashed=1;rounded=0;fontSize=10;entryX=1;entryY=0.5;entryDx=0;entryDy=0;entryPerimeter=0;exitX=0;exitY=0.5;exitDx=0;exitDy=0;" parent="1" source="uDXy11mLkWCe7fck7Lip-1" target="DEjrVZED9TpcQoU9JV5D-1" edge="1">
          <mxGeometry x="-0.4526" y="12" width="160" relative="1" as="geometry">
            <mxPoint x="740" y="470" as="sourcePoint" />
            <mxPoint x="540.1700000000001" y="540" as="targetPoint" />
            <mxPoint as="offset" />
          </mxGeometry>
        </mxCell>
        <mxCell id="uDXy11mLkWCe7fck7Lip-3" value="&lt;font&gt;condition: Se l&#39;utente inserisce un valore non conforme alle aspettative viene avvisato graficamente&lt;/font&gt;&lt;div&gt;&lt;font&gt;extension point: errore&amp;nbsp;&lt;span style=&quot;text-align: center;&quot;&gt;invalidArguments&lt;/span&gt;&lt;br&gt;&lt;/font&gt;&lt;/div&gt;" style="shape=note;size=15;align=left;spacingLeft=10;html=1;whiteSpace=wrap;fontSize=10;" parent="1" vertex="1">
          <mxGeometry x="660.0000000000001" y="440" width="213.5" height="80" as="geometry" />
        </mxCell>
        <mxCell id="uDXy11mLkWCe7fck7Lip-4" value="" style="ellipse;whiteSpace=wrap;html=1;aspect=fixed;fontSize=10;" parent="1" vertex="1">
          <mxGeometry x="610.0000000000001" y="395" width="10" height="10" as="geometry" />
        </mxCell>
        <mxCell id="uDXy11mLkWCe7fck7Lip-6" value="" style="endArrow=none;dashed=1;html=1;rounded=0;fontSize=10;entryX=0;entryY=0;entryDx=0;entryDy=0;entryPerimeter=0;exitX=0.5;exitY=1;exitDx=0;exitDy=0;" parent="1" source="uDXy11mLkWCe7fck7Lip-4" target="uDXy11mLkWCe7fck7Lip-3" edge="1">
          <mxGeometry width="50" height="50" relative="1" as="geometry">
            <mxPoint x="600" y="509" as="sourcePoint" />
            <mxPoint x="686" y="499" as="targetPoint" />
          </mxGeometry>
        </mxCell>
        <mxCell id="pPNUp2FZSD2IIAIyedWi-1" value="UC 2.1.2 L&#39;utente inserisce il campo y&lt;div&gt;extension points&lt;div&gt;Errore emptyField,&lt;/div&gt;&lt;div&gt;Errore invalidArguments&lt;/div&gt;&lt;div&gt;&lt;br&gt;&lt;/div&gt;&lt;/div&gt;" style="html=1;shape=mxgraph.sysml.useCaseExtPt;whiteSpace=wrap;align=center;fontSize=10;" parent="1" vertex="1">
          <mxGeometry x="318" y="580" width="202" height="110" as="geometry" />
        </mxCell>
        <mxCell id="pPNUp2FZSD2IIAIyedWi-2" value="" style="resizable=0;html=1;verticalAlign=middle;align=center;labelBackgroundColor=none;fontStyle=1;fontSize=10;" parent="pPNUp2FZSD2IIAIyedWi-1" connectable="0" vertex="1">
          <mxGeometry x="101.00000000000001" y="23.374999999999996" as="geometry" />
        </mxCell>
        <mxCell id="pPNUp2FZSD2IIAIyedWi-3" value="UC 2.1.3 L&#39;utente inserisce il campo z&lt;br&gt;&lt;div&gt;extension points&lt;div&gt;Errore emptyField,&lt;/div&gt;&lt;div&gt;Errore invalidArguments&lt;/div&gt;&lt;div&gt;&lt;br&gt;&lt;/div&gt;&lt;/div&gt;" style="html=1;shape=mxgraph.sysml.useCaseExtPt;whiteSpace=wrap;align=center;fontSize=10;" parent="1" vertex="1">
          <mxGeometry x="560" y="580" width="202" height="110" as="geometry" />
        </mxCell>
        <mxCell id="pPNUp2FZSD2IIAIyedWi-4" value="" style="resizable=0;html=1;verticalAlign=middle;align=center;labelBackgroundColor=none;fontStyle=1;fontSize=10;" parent="pPNUp2FZSD2IIAIyedWi-3" connectable="0" vertex="1">
          <mxGeometry x="101.00000000000001" y="23.374999999999996" as="geometry" />
        </mxCell>
      </root>
    </mxGraphModel>
  </diagram>
  <diagram name="UC 2.1.1" id="c3wOkrGxcje8IPlodvga">
    <mxGraphModel dx="1434" dy="1907" grid="1" gridSize="10" guides="1" tooltips="1" connect="1" arrows="1" fold="1" page="1" pageScale="1" pageWidth="827" pageHeight="1169" math="0" shadow="0">
      <root>
        <mxCell id="0" />
        <mxCell id="1" parent="0" />
        <mxCell id="qUA-leqDrk9q2vLmCV3H-1" value="" style="rounded=0;whiteSpace=wrap;html=1;fontSize=10;" parent="1" vertex="1">
          <mxGeometry x="210" y="-178.5" width="820" height="331" as="geometry" />
        </mxCell>
        <mxCell id="qUA-leqDrk9q2vLmCV3H-2" value="Utente Finale" style="shape=umlActor;verticalLabelPosition=bottom;verticalAlign=top;html=1;outlineConnect=0;fontSize=10;" parent="1" vertex="1">
          <mxGeometry x="130" y="-148.5" width="30" height="60" as="geometry" />
        </mxCell>
        <mxCell id="qUA-leqDrk9q2vLmCV3H-3" value="&lt;font style=&quot;font-size: 18px;&quot;&gt;UC 2.1&lt;/font&gt;" style="text;html=1;align=center;verticalAlign=middle;resizable=0;points=[];autosize=1;strokeColor=none;fillColor=none;fontSize=10;" parent="1" vertex="1">
          <mxGeometry x="210" y="-218.5" width="80" height="40" as="geometry" />
        </mxCell>
        <mxCell id="qUA-leqDrk9q2vLmCV3H-4" value="" style="line;strokeWidth=1;fillColor=none;align=left;verticalAlign=middle;spacingTop=-1;spacingLeft=3;spacingRight=3;rotatable=0;labelPosition=right;points=[];portConstraint=eastwest;strokeColor=inherit;fontSize=10;" parent="1" vertex="1">
          <mxGeometry x="160" y="-122.5" width="190" height="8" as="geometry" />
        </mxCell>
        <mxCell id="qUA-leqDrk9q2vLmCV3H-5" value="UC 2.1.1 L&#39;utente inserisce il campo x&lt;div&gt;extension points&lt;div&gt;Errore emptyField&lt;/div&gt;&lt;div&gt;Errore invalidArguments&lt;/div&gt;&lt;/div&gt;" style="html=1;shape=mxgraph.sysml.useCaseExtPt;whiteSpace=wrap;align=center;fontSize=10;" parent="1" vertex="1">
          <mxGeometry x="340" y="-158.5" width="290" height="80" as="geometry" />
        </mxCell>
        <mxCell id="qUA-leqDrk9q2vLmCV3H-6" value="" style="resizable=0;html=1;verticalAlign=middle;align=center;labelBackgroundColor=none;fontStyle=1;fontSize=10;" parent="qUA-leqDrk9q2vLmCV3H-5" connectable="0" vertex="1">
          <mxGeometry x="145.00000000000006" y="17" as="geometry" />
        </mxCell>
        <mxCell id="qUA-leqDrk9q2vLmCV3H-7" value="UC 25 - Visualizzazione errore emptyField" style="ellipse;whiteSpace=wrap;html=1;fontSize=10;" parent="1" vertex="1">
          <mxGeometry x="510" y="-8.5" width="140" height="70" as="geometry" />
        </mxCell>
        <mxCell id="qUA-leqDrk9q2vLmCV3H-8" value="&amp;lt;&amp;lt;extend&amp;gt;&amp;gt;" style="html=1;verticalAlign=bottom;labelBackgroundColor=none;endArrow=open;endFill=0;dashed=1;rounded=0;exitX=0.5;exitY=0;exitDx=0;exitDy=0;fontSize=10;entryX=0.407;entryY=0.955;entryDx=0;entryDy=0;entryPerimeter=0;" parent="1" source="qUA-leqDrk9q2vLmCV3H-7" edge="1">
          <mxGeometry x="0.4767" y="1" width="160" relative="1" as="geometry">
            <mxPoint x="304.59000000000003" y="231.5" as="sourcePoint" />
            <mxPoint x="472" y="-77.5" as="targetPoint" />
            <mxPoint as="offset" />
          </mxGeometry>
        </mxCell>
        <mxCell id="qUA-leqDrk9q2vLmCV3H-9" value="&lt;font&gt;condition: Se l&#39;utente inserisce un valore nullo viene avvisato graficamente&lt;/font&gt;&lt;div&gt;&lt;font&gt;extension point: errore &lt;/font&gt;emptyField&lt;/div&gt;" style="shape=note;size=15;align=left;spacingLeft=10;html=1;whiteSpace=wrap;fontSize=10;" parent="1" vertex="1">
          <mxGeometry x="300" y="49.5" width="213.5" height="80" as="geometry" />
        </mxCell>
        <mxCell id="qUA-leqDrk9q2vLmCV3H-10" value="UC 21 - Visualizzazione errore invalidArguments" style="ellipse;whiteSpace=wrap;html=1;fontSize=10;" parent="1" vertex="1">
          <mxGeometry x="710" y="-20.5" width="140" height="70" as="geometry" />
        </mxCell>
        <mxCell id="qUA-leqDrk9q2vLmCV3H-11" value="&amp;lt;&amp;lt;extend&amp;gt;&amp;gt;" style="html=1;verticalAlign=bottom;labelBackgroundColor=none;endArrow=open;endFill=0;dashed=1;rounded=0;entryX=0.704;entryY=0.935;entryDx=0;entryDy=0;entryPerimeter=0;fontSize=10;exitX=0.5;exitY=0;exitDx=0;exitDy=0;" parent="1" edge="1">
          <mxGeometry x="0.5047" y="6" width="160" relative="1" as="geometry">
            <mxPoint x="797.79" y="-20.5" as="sourcePoint" />
            <mxPoint x="549.9979999999998" y="-78.69999999999993" as="targetPoint" />
            <mxPoint as="offset" />
          </mxGeometry>
        </mxCell>
        <mxCell id="qUA-leqDrk9q2vLmCV3H-12" value="&lt;font&gt;condition: Se l&#39;utente inserisce un valore non conforme alle aspettative viene avvisato graficamente&lt;/font&gt;&lt;div&gt;&lt;font&gt;extension point: errore&amp;nbsp;&lt;span style=&quot;text-align: center;&quot;&gt;invalidArguments&lt;/span&gt;&lt;br&gt;&lt;/font&gt;&lt;div&gt;&lt;br&gt;&lt;/div&gt;&lt;/div&gt;" style="shape=note;size=15;align=left;spacingLeft=10;html=1;whiteSpace=wrap;fontSize=10;" parent="1" vertex="1">
          <mxGeometry x="790" y="-138.5" width="213.5" height="80" as="geometry" />
        </mxCell>
        <mxCell id="qUA-leqDrk9q2vLmCV3H-13" value="" style="endArrow=none;dashed=1;html=1;rounded=0;fontSize=10;exitX=1;exitY=0.5;exitDx=0;exitDy=0;" parent="1" source="qUA-leqDrk9q2vLmCV3H-16" edge="1">
          <mxGeometry width="50" height="50" relative="1" as="geometry">
            <mxPoint x="700" y="-218.5" as="sourcePoint" />
            <mxPoint x="785" y="-76.5" as="targetPoint" />
          </mxGeometry>
        </mxCell>
        <mxCell id="qUA-leqDrk9q2vLmCV3H-14" value="" style="endArrow=none;dashed=1;html=1;rounded=0;fontSize=10;entryX=-0.052;entryY=1.036;entryDx=0;entryDy=0;entryPerimeter=0;" parent="1" source="qUA-leqDrk9q2vLmCV3H-9" edge="1">
          <mxGeometry width="50" height="50" relative="1" as="geometry">
            <mxPoint x="450" y="-2.5" as="sourcePoint" />
            <mxPoint x="539" y="-28.5" as="targetPoint" />
          </mxGeometry>
        </mxCell>
        <mxCell id="qUA-leqDrk9q2vLmCV3H-15" value="" style="ellipse;whiteSpace=wrap;html=1;aspect=fixed;fontSize=10;" parent="1" vertex="1">
          <mxGeometry x="540" y="-38.5" width="10" height="10" as="geometry" />
        </mxCell>
        <mxCell id="qUA-leqDrk9q2vLmCV3H-16" value="" style="ellipse;whiteSpace=wrap;html=1;aspect=fixed;fontSize=10;" parent="1" vertex="1">
          <mxGeometry x="700" y="-48.5" width="10" height="10" as="geometry" />
        </mxCell>
      </root>
    </mxGraphModel>
  </diagram>
  <diagram name="UC 2.1.2" id="aftCNR-e2ZAjAjAEyefk">
    <mxGraphModel dx="2261" dy="738" grid="1" gridSize="10" guides="1" tooltips="1" connect="1" arrows="1" fold="1" page="1" pageScale="1" pageWidth="827" pageHeight="1169" math="0" shadow="0">
      <root>
        <mxCell id="Lnpzy789puaqtw-iWLrk-0" />
        <mxCell id="Lnpzy789puaqtw-iWLrk-1" parent="Lnpzy789puaqtw-iWLrk-0" />
        <mxCell id="5BsizuBW1iLx8E2i6pXT-1" value="" style="rounded=0;whiteSpace=wrap;html=1;fontSize=10;" parent="Lnpzy789puaqtw-iWLrk-1" vertex="1">
          <mxGeometry x="40" y="180" width="820" height="331" as="geometry" />
        </mxCell>
        <mxCell id="5BsizuBW1iLx8E2i6pXT-2" value="Utente Finale" style="shape=umlActor;verticalLabelPosition=bottom;verticalAlign=top;html=1;outlineConnect=0;fontSize=10;" parent="Lnpzy789puaqtw-iWLrk-1" vertex="1">
          <mxGeometry x="-40" y="210" width="30" height="60" as="geometry" />
        </mxCell>
        <mxCell id="5BsizuBW1iLx8E2i6pXT-3" value="&lt;font style=&quot;font-size: 18px;&quot;&gt;UC 2.1&lt;/font&gt;" style="text;html=1;align=center;verticalAlign=middle;resizable=0;points=[];autosize=1;strokeColor=none;fillColor=none;fontSize=10;" parent="Lnpzy789puaqtw-iWLrk-1" vertex="1">
          <mxGeometry x="40" y="140" width="80" height="40" as="geometry" />
        </mxCell>
        <mxCell id="5BsizuBW1iLx8E2i6pXT-4" value="" style="line;strokeWidth=1;fillColor=none;align=left;verticalAlign=middle;spacingTop=-1;spacingLeft=3;spacingRight=3;rotatable=0;labelPosition=right;points=[];portConstraint=eastwest;strokeColor=inherit;fontSize=10;" parent="Lnpzy789puaqtw-iWLrk-1" vertex="1">
          <mxGeometry x="-10" y="236" width="190" height="8" as="geometry" />
        </mxCell>
        <mxCell id="5BsizuBW1iLx8E2i6pXT-5" value="UC 2.1.2 L&#39;utente inserisce il campo y&lt;br&gt;&lt;div&gt;extension points&lt;div&gt;Errore emptyField&lt;/div&gt;&lt;div&gt;Errore invalidArguments&lt;/div&gt;&lt;/div&gt;" style="html=1;shape=mxgraph.sysml.useCaseExtPt;whiteSpace=wrap;align=center;fontSize=10;" parent="Lnpzy789puaqtw-iWLrk-1" vertex="1">
          <mxGeometry x="170" y="200" width="290" height="80" as="geometry" />
        </mxCell>
        <mxCell id="5BsizuBW1iLx8E2i6pXT-6" value="" style="resizable=0;html=1;verticalAlign=middle;align=center;labelBackgroundColor=none;fontStyle=1;fontSize=10;" parent="5BsizuBW1iLx8E2i6pXT-5" connectable="0" vertex="1">
          <mxGeometry x="145.00000000000006" y="17" as="geometry" />
        </mxCell>
        <mxCell id="5BsizuBW1iLx8E2i6pXT-7" value="UC 25 - Visualizzazione errore emptyField" style="ellipse;whiteSpace=wrap;html=1;fontSize=10;" parent="Lnpzy789puaqtw-iWLrk-1" vertex="1">
          <mxGeometry x="340" y="350" width="140" height="70" as="geometry" />
        </mxCell>
        <mxCell id="5BsizuBW1iLx8E2i6pXT-8" value="&amp;lt;&amp;lt;extend&amp;gt;&amp;gt;" style="html=1;verticalAlign=bottom;labelBackgroundColor=none;endArrow=open;endFill=0;dashed=1;rounded=0;exitX=0.5;exitY=0;exitDx=0;exitDy=0;fontSize=10;entryX=0.407;entryY=0.955;entryDx=0;entryDy=0;entryPerimeter=0;" parent="Lnpzy789puaqtw-iWLrk-1" source="5BsizuBW1iLx8E2i6pXT-7" edge="1">
          <mxGeometry x="0.4767" y="1" width="160" relative="1" as="geometry">
            <mxPoint x="134.59000000000003" y="590" as="sourcePoint" />
            <mxPoint x="302" y="281" as="targetPoint" />
            <mxPoint as="offset" />
          </mxGeometry>
        </mxCell>
        <mxCell id="5BsizuBW1iLx8E2i6pXT-9" value="&lt;font&gt;condition: Se l&#39;utente inserisce un valore nullo viene avvisato graficamente&lt;/font&gt;&lt;div&gt;&lt;font&gt;extension point: errore &lt;/font&gt;emptyField&lt;/div&gt;" style="shape=note;size=15;align=left;spacingLeft=10;html=1;whiteSpace=wrap;fontSize=10;" parent="Lnpzy789puaqtw-iWLrk-1" vertex="1">
          <mxGeometry x="130" y="408" width="213.5" height="80" as="geometry" />
        </mxCell>
        <mxCell id="5BsizuBW1iLx8E2i6pXT-10" value="UC 21 - Visualizzazione errore invalidArguments" style="ellipse;whiteSpace=wrap;html=1;fontSize=10;" parent="Lnpzy789puaqtw-iWLrk-1" vertex="1">
          <mxGeometry x="540" y="338" width="140" height="70" as="geometry" />
        </mxCell>
        <mxCell id="5BsizuBW1iLx8E2i6pXT-11" value="&amp;lt;&amp;lt;extend&amp;gt;&amp;gt;" style="html=1;verticalAlign=bottom;labelBackgroundColor=none;endArrow=open;endFill=0;dashed=1;rounded=0;entryX=0.704;entryY=0.935;entryDx=0;entryDy=0;entryPerimeter=0;fontSize=10;exitX=0.5;exitY=0;exitDx=0;exitDy=0;" parent="Lnpzy789puaqtw-iWLrk-1" edge="1">
          <mxGeometry x="0.5047" y="6" width="160" relative="1" as="geometry">
            <mxPoint x="627.79" y="338" as="sourcePoint" />
            <mxPoint x="379.9979999999998" y="279.80000000000007" as="targetPoint" />
            <mxPoint as="offset" />
          </mxGeometry>
        </mxCell>
        <mxCell id="5BsizuBW1iLx8E2i6pXT-12" value="&lt;font&gt;condition: Se l&#39;utente inserisce un valore non conforme alle aspettative viene avvisato graficamente&lt;/font&gt;&lt;div&gt;&lt;font&gt;extension point: errore&amp;nbsp;&lt;span style=&quot;text-align: center;&quot;&gt;invalidArguments&lt;/span&gt;&lt;br&gt;&lt;/font&gt;&lt;div&gt;&lt;br&gt;&lt;/div&gt;&lt;/div&gt;" style="shape=note;size=15;align=left;spacingLeft=10;html=1;whiteSpace=wrap;fontSize=10;" parent="Lnpzy789puaqtw-iWLrk-1" vertex="1">
          <mxGeometry x="620" y="220" width="213.5" height="80" as="geometry" />
        </mxCell>
        <mxCell id="5BsizuBW1iLx8E2i6pXT-13" value="" style="endArrow=none;dashed=1;html=1;rounded=0;fontSize=10;exitX=1;exitY=0.5;exitDx=0;exitDy=0;" parent="Lnpzy789puaqtw-iWLrk-1" source="5BsizuBW1iLx8E2i6pXT-16" edge="1">
          <mxGeometry width="50" height="50" relative="1" as="geometry">
            <mxPoint x="530" y="140" as="sourcePoint" />
            <mxPoint x="615" y="282" as="targetPoint" />
          </mxGeometry>
        </mxCell>
        <mxCell id="5BsizuBW1iLx8E2i6pXT-14" value="" style="endArrow=none;dashed=1;html=1;rounded=0;fontSize=10;entryX=-0.052;entryY=1.036;entryDx=0;entryDy=0;entryPerimeter=0;" parent="Lnpzy789puaqtw-iWLrk-1" source="5BsizuBW1iLx8E2i6pXT-9" edge="1">
          <mxGeometry width="50" height="50" relative="1" as="geometry">
            <mxPoint x="280" y="356" as="sourcePoint" />
            <mxPoint x="369" y="330" as="targetPoint" />
          </mxGeometry>
        </mxCell>
        <mxCell id="5BsizuBW1iLx8E2i6pXT-15" value="" style="ellipse;whiteSpace=wrap;html=1;aspect=fixed;fontSize=10;" parent="Lnpzy789puaqtw-iWLrk-1" vertex="1">
          <mxGeometry x="370" y="320" width="10" height="10" as="geometry" />
        </mxCell>
        <mxCell id="5BsizuBW1iLx8E2i6pXT-16" value="" style="ellipse;whiteSpace=wrap;html=1;aspect=fixed;fontSize=10;" parent="Lnpzy789puaqtw-iWLrk-1" vertex="1">
          <mxGeometry x="530" y="310" width="10" height="10" as="geometry" />
        </mxCell>
      </root>
    </mxGraphModel>
  </diagram>
  <diagram name="UC 2.1.3" id="vOg4TmoozeP3U3pUYR-b">
    <mxGraphModel dx="2261" dy="738" grid="1" gridSize="10" guides="1" tooltips="1" connect="1" arrows="1" fold="1" page="1" pageScale="1" pageWidth="827" pageHeight="1169" math="0" shadow="0">
      <root>
        <mxCell id="rX9RLabsXCg2AZcAyc5x-0" />
        <mxCell id="rX9RLabsXCg2AZcAyc5x-1" parent="rX9RLabsXCg2AZcAyc5x-0" />
        <mxCell id="VjEf8x1RLeKBycdrK8G5-0" value="" style="rounded=0;whiteSpace=wrap;html=1;fontSize=10;" parent="rX9RLabsXCg2AZcAyc5x-1" vertex="1">
          <mxGeometry x="40" y="180" width="820" height="331" as="geometry" />
        </mxCell>
        <mxCell id="VjEf8x1RLeKBycdrK8G5-1" value="Utente Finale" style="shape=umlActor;verticalLabelPosition=bottom;verticalAlign=top;html=1;outlineConnect=0;fontSize=10;" parent="rX9RLabsXCg2AZcAyc5x-1" vertex="1">
          <mxGeometry x="-40" y="210" width="30" height="60" as="geometry" />
        </mxCell>
        <mxCell id="VjEf8x1RLeKBycdrK8G5-2" value="&lt;font style=&quot;font-size: 18px;&quot;&gt;UC 2.1&lt;/font&gt;" style="text;html=1;align=center;verticalAlign=middle;resizable=0;points=[];autosize=1;strokeColor=none;fillColor=none;fontSize=10;" parent="rX9RLabsXCg2AZcAyc5x-1" vertex="1">
          <mxGeometry x="45" y="140" width="80" height="40" as="geometry" />
        </mxCell>
        <mxCell id="VjEf8x1RLeKBycdrK8G5-3" value="" style="line;strokeWidth=1;fillColor=none;align=left;verticalAlign=middle;spacingTop=-1;spacingLeft=3;spacingRight=3;rotatable=0;labelPosition=right;points=[];portConstraint=eastwest;strokeColor=inherit;fontSize=10;" parent="rX9RLabsXCg2AZcAyc5x-1" vertex="1">
          <mxGeometry x="-10" y="236" width="190" height="8" as="geometry" />
        </mxCell>
        <mxCell id="VjEf8x1RLeKBycdrK8G5-4" value="UC 2.1.3 L&#39;utente inserisce il campo z&lt;br&gt;&lt;div&gt;extension points&lt;div&gt;Errore emptyField&lt;/div&gt;&lt;div&gt;Errore invalidArguments&lt;/div&gt;&lt;/div&gt;" style="html=1;shape=mxgraph.sysml.useCaseExtPt;whiteSpace=wrap;align=center;fontSize=10;" parent="rX9RLabsXCg2AZcAyc5x-1" vertex="1">
          <mxGeometry x="170" y="200" width="290" height="80" as="geometry" />
        </mxCell>
        <mxCell id="VjEf8x1RLeKBycdrK8G5-5" value="" style="resizable=0;html=1;verticalAlign=middle;align=center;labelBackgroundColor=none;fontStyle=1;fontSize=10;" parent="VjEf8x1RLeKBycdrK8G5-4" connectable="0" vertex="1">
          <mxGeometry x="145.00000000000006" y="17" as="geometry" />
        </mxCell>
        <mxCell id="VjEf8x1RLeKBycdrK8G5-6" value="UC 25 - Visualizzazione errore emptyField" style="ellipse;whiteSpace=wrap;html=1;fontSize=10;" parent="rX9RLabsXCg2AZcAyc5x-1" vertex="1">
          <mxGeometry x="340" y="350" width="140" height="70" as="geometry" />
        </mxCell>
        <mxCell id="VjEf8x1RLeKBycdrK8G5-7" value="&amp;lt;&amp;lt;extend&amp;gt;&amp;gt;" style="html=1;verticalAlign=bottom;labelBackgroundColor=none;endArrow=open;endFill=0;dashed=1;rounded=0;exitX=0.5;exitY=0;exitDx=0;exitDy=0;fontSize=10;entryX=0.407;entryY=0.955;entryDx=0;entryDy=0;entryPerimeter=0;" parent="rX9RLabsXCg2AZcAyc5x-1" source="VjEf8x1RLeKBycdrK8G5-6" edge="1">
          <mxGeometry x="0.4767" y="1" width="160" relative="1" as="geometry">
            <mxPoint x="134.59000000000003" y="590" as="sourcePoint" />
            <mxPoint x="302" y="281" as="targetPoint" />
            <mxPoint as="offset" />
          </mxGeometry>
        </mxCell>
        <mxCell id="VjEf8x1RLeKBycdrK8G5-8" value="&lt;font&gt;condition: Se l&#39;utente inserisce un valore nullo viene avvisato graficamente&lt;/font&gt;&lt;div&gt;&lt;font&gt;extension point: errore &lt;/font&gt;emptyField&lt;/div&gt;" style="shape=note;size=15;align=left;spacingLeft=10;html=1;whiteSpace=wrap;fontSize=10;" parent="rX9RLabsXCg2AZcAyc5x-1" vertex="1">
          <mxGeometry x="130" y="408" width="213.5" height="80" as="geometry" />
        </mxCell>
        <mxCell id="VjEf8x1RLeKBycdrK8G5-9" value="UC 21 - Visualizzazione errore invalidArguments" style="ellipse;whiteSpace=wrap;html=1;fontSize=10;" parent="rX9RLabsXCg2AZcAyc5x-1" vertex="1">
          <mxGeometry x="540" y="338" width="140" height="70" as="geometry" />
        </mxCell>
        <mxCell id="VjEf8x1RLeKBycdrK8G5-10" value="&amp;lt;&amp;lt;extend&amp;gt;&amp;gt;" style="html=1;verticalAlign=bottom;labelBackgroundColor=none;endArrow=open;endFill=0;dashed=1;rounded=0;entryX=0.704;entryY=0.935;entryDx=0;entryDy=0;entryPerimeter=0;fontSize=10;exitX=0.5;exitY=0;exitDx=0;exitDy=0;" parent="rX9RLabsXCg2AZcAyc5x-1" edge="1">
          <mxGeometry x="0.5047" y="6" width="160" relative="1" as="geometry">
            <mxPoint x="627.79" y="338" as="sourcePoint" />
            <mxPoint x="379.9979999999998" y="279.80000000000007" as="targetPoint" />
            <mxPoint as="offset" />
          </mxGeometry>
        </mxCell>
        <mxCell id="VjEf8x1RLeKBycdrK8G5-11" value="&lt;font&gt;condition: Se l&#39;utente inserisce un valore non conforme alle aspettative viene avvisato graficamente&lt;/font&gt;&lt;div&gt;&lt;font&gt;extension point: errore&amp;nbsp;&lt;span style=&quot;text-align: center;&quot;&gt;invalidArguments&lt;/span&gt;&lt;br&gt;&lt;/font&gt;&lt;div&gt;&lt;br&gt;&lt;/div&gt;&lt;/div&gt;" style="shape=note;size=15;align=left;spacingLeft=10;html=1;whiteSpace=wrap;fontSize=10;" parent="rX9RLabsXCg2AZcAyc5x-1" vertex="1">
          <mxGeometry x="620" y="220" width="213.5" height="80" as="geometry" />
        </mxCell>
        <mxCell id="VjEf8x1RLeKBycdrK8G5-12" value="" style="endArrow=none;dashed=1;html=1;rounded=0;fontSize=10;exitX=1;exitY=0.5;exitDx=0;exitDy=0;" parent="rX9RLabsXCg2AZcAyc5x-1" source="VjEf8x1RLeKBycdrK8G5-15" edge="1">
          <mxGeometry width="50" height="50" relative="1" as="geometry">
            <mxPoint x="530" y="140" as="sourcePoint" />
            <mxPoint x="615" y="282" as="targetPoint" />
          </mxGeometry>
        </mxCell>
        <mxCell id="VjEf8x1RLeKBycdrK8G5-13" value="" style="endArrow=none;dashed=1;html=1;rounded=0;fontSize=10;entryX=-0.052;entryY=1.036;entryDx=0;entryDy=0;entryPerimeter=0;" parent="rX9RLabsXCg2AZcAyc5x-1" source="VjEf8x1RLeKBycdrK8G5-8" edge="1">
          <mxGeometry width="50" height="50" relative="1" as="geometry">
            <mxPoint x="280" y="356" as="sourcePoint" />
            <mxPoint x="369" y="330" as="targetPoint" />
          </mxGeometry>
        </mxCell>
        <mxCell id="VjEf8x1RLeKBycdrK8G5-14" value="" style="ellipse;whiteSpace=wrap;html=1;aspect=fixed;fontSize=10;" parent="rX9RLabsXCg2AZcAyc5x-1" vertex="1">
          <mxGeometry x="370" y="320" width="10" height="10" as="geometry" />
        </mxCell>
        <mxCell id="VjEf8x1RLeKBycdrK8G5-15" value="" style="ellipse;whiteSpace=wrap;html=1;aspect=fixed;fontSize=10;" parent="rX9RLabsXCg2AZcAyc5x-1" vertex="1">
          <mxGeometry x="530" y="310" width="10" height="10" as="geometry" />
        </mxCell>
      </root>
    </mxGraphModel>
  </diagram>
  <diagram name="UC 2.2" id="YuNIY5ZjWtwN10X5UnA4">
    <mxGraphModel dx="1434" dy="738" grid="1" gridSize="10" guides="1" tooltips="1" connect="1" arrows="1" fold="1" page="1" pageScale="1" pageWidth="827" pageHeight="1169" math="0" shadow="0">
      <root>
        <mxCell id="0" />
        <mxCell id="1" parent="0" />
        <mxCell id="APiN4X_Nempf9UpK9VhY-16" value="" style="rounded=0;whiteSpace=wrap;html=1;fontSize=10;" parent="1" vertex="1">
          <mxGeometry x="240" y="430" width="680" height="340" as="geometry" />
        </mxCell>
        <mxCell id="APiN4X_Nempf9UpK9VhY-2" value="&amp;nbsp;UC 22 - Visualizzazione errore tooMuchData" style="ellipse;whiteSpace=wrap;html=1;fontSize=10;" parent="1" vertex="1">
          <mxGeometry x="440" y="680" width="140" height="70" as="geometry" />
        </mxCell>
        <mxCell id="APiN4X_Nempf9UpK9VhY-3" value="UC 24 - Visualizzazione errore apiTimeout" style="ellipse;whiteSpace=wrap;html=1;fontSize=10;" parent="1" vertex="1">
          <mxGeometry x="590" y="680" width="140" height="70" as="geometry" />
        </mxCell>
        <mxCell id="APiN4X_Nempf9UpK9VhY-4" value="&lt;font&gt;contidion: Se l&#39;API non risponde in un tempo limite, viene avvisato graficamente&lt;/font&gt;&lt;div&gt;&lt;font&gt;extension point: Errore ApiTimeOut&lt;/font&gt;&lt;/div&gt;" style="shape=note;size=15;align=left;spacingLeft=10;html=1;whiteSpace=wrap;direction=east;fontSize=10;" parent="1" vertex="1">
          <mxGeometry x="700" y="584.5" width="190" height="80" as="geometry" />
        </mxCell>
        <mxCell id="APiN4X_Nempf9UpK9VhY-5" value="&lt;font&gt;condition: Se la chiamata all&#39;API restituisce un numero di dati superiori a quelli supportati, viene avvisato graficamente&lt;/font&gt;&lt;div&gt;&lt;font&gt;extension point: Errore tooMuchData&lt;br&gt;&lt;/font&gt;&lt;div&gt;&lt;br&gt;&lt;/div&gt;&lt;/div&gt;" style="shape=note;size=15;align=left;spacingLeft=10;html=1;whiteSpace=wrap;fontSize=10;" parent="1" vertex="1">
          <mxGeometry x="270" y="600" width="213.5" height="80" as="geometry" />
        </mxCell>
        <mxCell id="APiN4X_Nempf9UpK9VhY-6" value="&amp;lt;&amp;lt;extend&amp;gt;&amp;gt;" style="html=1;verticalAlign=bottom;endArrow=open;dashed=1;endSize=8;curved=0;rounded=0;exitX=0.5;exitY=0;exitDx=0;exitDy=0;entryX=0.5;entryY=1;entryDx=0;entryDy=0;entryPerimeter=0;fontSize=10;" parent="1" source="APiN4X_Nempf9UpK9VhY-2" target="APiN4X_Nempf9UpK9VhY-12" edge="1">
          <mxGeometry x="0.0015" relative="1" as="geometry">
            <mxPoint x="680" y="470" as="sourcePoint" />
            <mxPoint x="570" y="575" as="targetPoint" />
            <mxPoint as="offset" />
          </mxGeometry>
        </mxCell>
        <mxCell id="APiN4X_Nempf9UpK9VhY-7" value="&amp;lt;&amp;lt;extend&amp;gt;&amp;gt;" style="html=1;verticalAlign=bottom;endArrow=open;dashed=1;endSize=8;curved=0;rounded=0;exitX=0.5;exitY=0;exitDx=0;exitDy=0;entryX=0.5;entryY=1;entryDx=0;entryDy=0;entryPerimeter=0;fontSize=10;" parent="1" source="APiN4X_Nempf9UpK9VhY-3" target="APiN4X_Nempf9UpK9VhY-12" edge="1">
          <mxGeometry relative="1" as="geometry">
            <mxPoint x="470" y="660" as="sourcePoint" />
            <mxPoint x="570" y="575" as="targetPoint" />
          </mxGeometry>
        </mxCell>
        <mxCell id="APiN4X_Nempf9UpK9VhY-8" value="" style="endArrow=none;dashed=1;html=1;rounded=0;entryX=0;entryY=0.5;entryDx=0;entryDy=0;entryPerimeter=0;exitX=0;exitY=1;exitDx=0;exitDy=0;exitPerimeter=0;fontSize=10;" parent="1" source="APiN4X_Nempf9UpK9VhY-4" target="APiN4X_Nempf9UpK9VhY-4" edge="1">
          <mxGeometry width="50" height="50" relative="1" as="geometry">
            <mxPoint x="620" y="630" as="sourcePoint" />
            <mxPoint x="610" y="520" as="targetPoint" />
          </mxGeometry>
        </mxCell>
        <mxCell id="APiN4X_Nempf9UpK9VhY-9" value="" style="ellipse;whiteSpace=wrap;html=1;aspect=fixed;fontSize=10;" parent="1" vertex="1">
          <mxGeometry x="630" y="640" width="10" height="10" as="geometry" />
        </mxCell>
        <mxCell id="APiN4X_Nempf9UpK9VhY-10" value="" style="endArrow=none;dashed=1;html=1;rounded=0;entryX=0;entryY=0;entryDx=213.5;entryDy=15;entryPerimeter=0;fontSize=10;" parent="1" source="APiN4X_Nempf9UpK9VhY-11" target="APiN4X_Nempf9UpK9VhY-5" edge="1">
          <mxGeometry width="50" height="50" relative="1" as="geometry">
            <mxPoint x="460" y="610" as="sourcePoint" />
            <mxPoint x="687" y="605" as="targetPoint" />
          </mxGeometry>
        </mxCell>
        <mxCell id="APiN4X_Nempf9UpK9VhY-11" value="" style="ellipse;whiteSpace=wrap;html=1;aspect=fixed;fontSize=10;" parent="1" vertex="1">
          <mxGeometry x="530" y="650" width="10" height="10" as="geometry" />
        </mxCell>
        <mxCell id="APiN4X_Nempf9UpK9VhY-12" value="&lt;br&gt;extension points&lt;br&gt;&lt;span&gt;&amp;nbsp;Errore&amp;nbsp;&lt;/span&gt;tooMuchData&lt;span&gt;,&amp;nbsp;&lt;/span&gt;&lt;div&gt;Errore ApiTimeout&lt;/div&gt;" style="html=1;shape=mxgraph.sysml.useCaseExtPt;whiteSpace=wrap;align=center;fontSize=10;" parent="1" vertex="1">
          <mxGeometry x="460" y="440" width="285" height="160" as="geometry" />
        </mxCell>
        <mxCell id="APiN4X_Nempf9UpK9VhY-13" value="" style="resizable=0;html=1;verticalAlign=middle;align=center;labelBackgroundColor=none;fontStyle=1;fontSize=10;" parent="APiN4X_Nempf9UpK9VhY-12" connectable="0" vertex="1">
          <mxGeometry x="135" y="34" as="geometry" />
        </mxCell>
        <mxCell id="APiN4X_Nempf9UpK9VhY-14" value="&lt;div&gt;UC 2.2 - Caricamento automatico dati tramite&lt;/div&gt;&lt;div&gt;chiamata all&#39;API esterna Weather Forecast&lt;/div&gt;" style="text;html=1;align=center;verticalAlign=middle;resizable=0;points=[];autosize=1;strokeColor=none;fillColor=none;fontSize=10;" parent="APiN4X_Nempf9UpK9VhY-12" vertex="1">
          <mxGeometry x="27.5" y="19.997142857142855" width="230" height="40" as="geometry" />
        </mxCell>
        <mxCell id="APiN4X_Nempf9UpK9VhY-15" value="" style="endArrow=none;dashed=1;html=1;rounded=0;entryX=1;entryY=0.5;entryDx=0;entryDy=0;exitX=0;exitY=0;exitDx=0;exitDy=0;exitPerimeter=0;fontSize=10;" parent="1" source="APiN4X_Nempf9UpK9VhY-4" target="APiN4X_Nempf9UpK9VhY-9" edge="1">
          <mxGeometry width="50" height="50" relative="1" as="geometry">
            <mxPoint x="542" y="651" as="sourcePoint" />
            <mxPoint x="524" y="625" as="targetPoint" />
          </mxGeometry>
        </mxCell>
        <mxCell id="ot0xNigqYGcCbBu4eija-1" value="Utente Finale" style="shape=umlActor;verticalLabelPosition=bottom;verticalAlign=top;html=1;outlineConnect=0;fontSize=10;" parent="1" vertex="1">
          <mxGeometry x="140" y="500" width="30" height="60" as="geometry" />
        </mxCell>
        <mxCell id="ot0xNigqYGcCbBu4eija-2" value="&lt;font style=&quot;font-size: 18px;&quot;&gt;UC 2&lt;/font&gt;" style="text;html=1;align=center;verticalAlign=middle;resizable=0;points=[];autosize=1;strokeColor=none;fillColor=none;fontSize=10;" parent="1" vertex="1">
          <mxGeometry x="240" y="390" width="60" height="40" as="geometry" />
        </mxCell>
        <mxCell id="ot0xNigqYGcCbBu4eija-3" value="" style="line;strokeWidth=1;fillColor=none;align=left;verticalAlign=middle;spacingTop=-1;spacingLeft=3;spacingRight=3;rotatable=0;labelPosition=right;points=[];portConstraint=eastwest;strokeColor=inherit;fontSize=10;" parent="1" vertex="1">
          <mxGeometry x="170" y="529" width="290" height="8" as="geometry" />
        </mxCell>
      </root>
    </mxGraphModel>
  </diagram>
  <diagram name="UC 2.3" id="JvphzjLIWS4jRRUCbcJW">
    <mxGraphModel dx="1434" dy="738" grid="1" gridSize="10" guides="1" tooltips="1" connect="1" arrows="1" fold="1" page="1" pageScale="1" pageWidth="827" pageHeight="1169" math="0" shadow="0">
      <root>
        <mxCell id="9-NvbHRqpBgjscW1e3NA-0" />
        <mxCell id="9-NvbHRqpBgjscW1e3NA-1" parent="9-NvbHRqpBgjscW1e3NA-0" />
        <mxCell id="9-NvbHRqpBgjscW1e3NA-2" value="" style="rounded=0;whiteSpace=wrap;html=1;fontSize=10;" parent="9-NvbHRqpBgjscW1e3NA-1" vertex="1">
          <mxGeometry x="240" y="430" width="570" height="330" as="geometry" />
        </mxCell>
        <mxCell id="9-NvbHRqpBgjscW1e3NA-3" value="UC 26 - Visualizzazione errore networkError" style="ellipse;whiteSpace=wrap;html=1;fontSize=10;" parent="9-NvbHRqpBgjscW1e3NA-1" vertex="1">
          <mxGeometry x="440" y="680" width="140" height="70" as="geometry" />
        </mxCell>
        <mxCell id="9-NvbHRqpBgjscW1e3NA-6" value="&lt;font&gt;condition: Se il DB non risponde per vari problemi di rete, l&#39;utente viene avvisato graficamente&amp;nbsp;&lt;/font&gt;&lt;div&gt;&lt;span style=&quot;background-color: transparent; color: light-dark(rgb(0, 0, 0), rgb(255, 255, 255));&quot;&gt;extension point: Errore networkError&lt;/span&gt;&lt;div&gt;&lt;div&gt;&lt;br&gt;&lt;/div&gt;&lt;/div&gt;&lt;/div&gt;" style="shape=note;size=15;align=left;spacingLeft=10;html=1;whiteSpace=wrap;fontSize=10;" parent="9-NvbHRqpBgjscW1e3NA-1" vertex="1">
          <mxGeometry x="270" y="600" width="213.5" height="80" as="geometry" />
        </mxCell>
        <mxCell id="9-NvbHRqpBgjscW1e3NA-7" value="&amp;lt;&amp;lt;extend&amp;gt;&amp;gt;" style="html=1;verticalAlign=bottom;endArrow=open;dashed=1;endSize=8;curved=0;rounded=0;exitX=0.5;exitY=0;exitDx=0;exitDy=0;entryX=0.5;entryY=1;entryDx=0;entryDy=0;entryPerimeter=0;fontSize=10;" parent="9-NvbHRqpBgjscW1e3NA-1" source="9-NvbHRqpBgjscW1e3NA-3" target="9-NvbHRqpBgjscW1e3NA-13" edge="1">
          <mxGeometry x="0.0015" relative="1" as="geometry">
            <mxPoint x="680" y="470" as="sourcePoint" />
            <mxPoint x="570" y="575" as="targetPoint" />
            <mxPoint as="offset" />
          </mxGeometry>
        </mxCell>
        <mxCell id="9-NvbHRqpBgjscW1e3NA-11" value="" style="endArrow=none;dashed=1;html=1;rounded=0;entryX=0;entryY=0;entryDx=213.5;entryDy=15;entryPerimeter=0;fontSize=10;" parent="9-NvbHRqpBgjscW1e3NA-1" source="9-NvbHRqpBgjscW1e3NA-12" target="9-NvbHRqpBgjscW1e3NA-6" edge="1">
          <mxGeometry width="50" height="50" relative="1" as="geometry">
            <mxPoint x="460" y="610" as="sourcePoint" />
            <mxPoint x="687" y="605" as="targetPoint" />
          </mxGeometry>
        </mxCell>
        <mxCell id="9-NvbHRqpBgjscW1e3NA-12" value="" style="ellipse;whiteSpace=wrap;html=1;aspect=fixed;fontSize=10;" parent="9-NvbHRqpBgjscW1e3NA-1" vertex="1">
          <mxGeometry x="530" y="650" width="10" height="10" as="geometry" />
        </mxCell>
        <mxCell id="9-NvbHRqpBgjscW1e3NA-13" value="&lt;br&gt;extension points&lt;br&gt;&lt;span&gt;&amp;nbsp;Errore networkError&lt;/span&gt;" style="html=1;shape=mxgraph.sysml.useCaseExtPt;whiteSpace=wrap;align=center;fontSize=10;" parent="9-NvbHRqpBgjscW1e3NA-1" vertex="1">
          <mxGeometry x="460" y="440" width="315" height="160" as="geometry" />
        </mxCell>
        <mxCell id="9-NvbHRqpBgjscW1e3NA-14" value="" style="resizable=0;html=1;verticalAlign=middle;align=center;labelBackgroundColor=none;fontStyle=1;fontSize=10;" parent="9-NvbHRqpBgjscW1e3NA-13" connectable="0" vertex="1">
          <mxGeometry x="135" y="34" as="geometry" />
        </mxCell>
        <mxCell id="9-NvbHRqpBgjscW1e3NA-15" value="UC 2.3 - Caricamento automatico dati &#xa;tramite connessione a database SQL" style="text;align=center;verticalAlign=middle;resizable=0;points=[];autosize=1;strokeColor=none;fillColor=none;fontSize=10;rounded=0;labelPosition=center;verticalLabelPosition=middle;" parent="9-NvbHRqpBgjscW1e3NA-13" vertex="1">
          <mxGeometry x="60" y="13.997142857142876" width="190" height="40" as="geometry" />
        </mxCell>
        <mxCell id="9-NvbHRqpBgjscW1e3NA-17" value="Utente Finale" style="shape=umlActor;verticalLabelPosition=bottom;verticalAlign=top;html=1;outlineConnect=0;fontSize=10;" parent="9-NvbHRqpBgjscW1e3NA-1" vertex="1">
          <mxGeometry x="140" y="500" width="30" height="60" as="geometry" />
        </mxCell>
        <mxCell id="9-NvbHRqpBgjscW1e3NA-18" value="&lt;font style=&quot;font-size: 18px;&quot;&gt;UC 2&lt;/font&gt;" style="text;html=1;align=center;verticalAlign=middle;resizable=0;points=[];autosize=1;strokeColor=none;fillColor=none;fontSize=10;" parent="9-NvbHRqpBgjscW1e3NA-1" vertex="1">
          <mxGeometry x="240" y="390" width="60" height="40" as="geometry" />
        </mxCell>
        <mxCell id="9-NvbHRqpBgjscW1e3NA-19" value="" style="line;strokeWidth=1;fillColor=none;align=left;verticalAlign=middle;spacingTop=-1;spacingLeft=3;spacingRight=3;rotatable=0;labelPosition=right;points=[];portConstraint=eastwest;strokeColor=inherit;fontSize=10;" parent="9-NvbHRqpBgjscW1e3NA-1" vertex="1">
          <mxGeometry x="170" y="529" width="290" height="8" as="geometry" />
        </mxCell>
      </root>
    </mxGraphModel>
  </diagram>
  <diagram name="UC 2.4" id="aH1TvgMMtL2UhQgnGytJ">
    <mxGraphModel dx="1434" dy="738" grid="1" gridSize="10" guides="1" tooltips="1" connect="1" arrows="1" fold="1" page="1" pageScale="1" pageWidth="827" pageHeight="1169" math="0" shadow="0">
      <root>
        <mxCell id="0" />
        <mxCell id="1" parent="0" />
        <mxCell id="5YyMDe5nxf5BBA_hLEBE-14" value="" style="rounded=0;whiteSpace=wrap;html=1;fontSize=10;" parent="1" vertex="1">
          <mxGeometry x="420" y="140" width="890" height="500" as="geometry" />
        </mxCell>
        <mxCell id="5YyMDe5nxf5BBA_hLEBE-1" value="&lt;br&gt;extension points&lt;br&gt;&lt;div&gt;&lt;span&gt;&amp;nbsp;&lt;/span&gt;&amp;nbsp;Errore&amp;nbsp;tooMuchData,&lt;/div&gt;&lt;div&gt;Errore fileTooBig,&lt;/div&gt;&lt;div&gt;Errore invalidCsv &lt;br&gt;&lt;/div&gt;&lt;div&gt;&lt;br&gt;&lt;/div&gt;" style="html=1;shape=mxgraph.sysml.useCaseExtPt;whiteSpace=wrap;align=center;fontSize=10;" parent="1" vertex="1">
          <mxGeometry x="660" y="320" width="280" height="150" as="geometry" />
        </mxCell>
        <mxCell id="5YyMDe5nxf5BBA_hLEBE-2" value="" style="resizable=0;html=1;verticalAlign=middle;align=center;labelBackgroundColor=none;fontStyle=1;fontSize=10;" parent="5YyMDe5nxf5BBA_hLEBE-1" connectable="0" vertex="1">
          <mxGeometry x="140" y="31.875" as="geometry" />
        </mxCell>
        <mxCell id="5YyMDe5nxf5BBA_hLEBE-3" value="UC 2.4 - Caricamento automatico dati tramite file .csv" style="text;html=1;align=center;verticalAlign=middle;resizable=0;points=[];autosize=1;strokeColor=none;fillColor=none;fontSize=10;" parent="5YyMDe5nxf5BBA_hLEBE-1" vertex="1">
          <mxGeometry x="10" y="29.032258064516128" width="260" height="30" as="geometry" />
        </mxCell>
        <mxCell id="5YyMDe5nxf5BBA_hLEBE-4" value="&amp;nbsp;UC 22 - Visualizzazione errore tooMuchData" style="ellipse;whiteSpace=wrap;html=1;fontSize=10;" parent="1" vertex="1">
          <mxGeometry x="1040" y="311.5" width="140" height="70" as="geometry" />
        </mxCell>
        <mxCell id="5YyMDe5nxf5BBA_hLEBE-5" value="&lt;font&gt;condition: Se il file CSV caricato dall&#39;utente ha un numero di dati superiori a quelli supportati, viene avvisato graficamente&lt;/font&gt;&lt;div&gt;&lt;font&gt;extension point:&amp;nbsp;&lt;span style=&quot;text-align: center;&quot;&gt;&amp;nbsp;Errore&amp;nbsp;&lt;/span&gt;&lt;span style=&quot;text-align: center;&quot;&gt;tooMuchData&lt;/span&gt;&lt;/font&gt;&lt;div&gt;&lt;br&gt;&lt;/div&gt;&lt;/div&gt;" style="shape=note;size=15;align=left;spacingLeft=10;html=1;whiteSpace=wrap;fontSize=10;" parent="1" vertex="1">
          <mxGeometry x="1020" y="430" width="213.5" height="80" as="geometry" />
        </mxCell>
        <mxCell id="5YyMDe5nxf5BBA_hLEBE-6" value="&amp;lt;&amp;lt;extend&amp;gt;&amp;gt;" style="html=1;verticalAlign=bottom;endArrow=open;dashed=1;endSize=8;curved=0;rounded=0;exitX=0;exitY=0.5;exitDx=0;exitDy=0;entryX=1;entryY=0.5;entryDx=0;entryDy=0;entryPerimeter=0;fontSize=10;" parent="1" source="5YyMDe5nxf5BBA_hLEBE-4" target="5YyMDe5nxf5BBA_hLEBE-1" edge="1">
          <mxGeometry x="0.0015" relative="1" as="geometry">
            <mxPoint x="1170" y="355" as="sourcePoint" />
            <mxPoint x="1070" y="485" as="targetPoint" />
            <mxPoint as="offset" />
          </mxGeometry>
        </mxCell>
        <mxCell id="5YyMDe5nxf5BBA_hLEBE-7" value="" style="endArrow=none;dashed=1;html=1;rounded=0;entryX=0;entryY=0;entryDx=0;entryDy=0;entryPerimeter=0;fontSize=10;" parent="1" source="5YyMDe5nxf5BBA_hLEBE-8" target="5YyMDe5nxf5BBA_hLEBE-5" edge="1">
          <mxGeometry width="50" height="50" relative="1" as="geometry">
            <mxPoint x="950" y="495" as="sourcePoint" />
            <mxPoint x="1177" y="490" as="targetPoint" />
          </mxGeometry>
        </mxCell>
        <mxCell id="5YyMDe5nxf5BBA_hLEBE-8" value="" style="ellipse;whiteSpace=wrap;html=1;aspect=fixed;fontSize=10;" parent="1" vertex="1">
          <mxGeometry x="980" y="371.5" width="10" height="10" as="geometry" />
        </mxCell>
        <mxCell id="5YyMDe5nxf5BBA_hLEBE-10" value="&amp;lt;&amp;lt;include&amp;gt;&amp;gt;" style="html=1;verticalAlign=bottom;labelBackgroundColor=none;endArrow=open;endFill=0;dashed=1;rounded=0;exitX=0.5;exitY=1;exitDx=0;exitDy=0;fontSize=10;exitPerimeter=0;entryX=0.5;entryY=0;entryDx=0;entryDy=0;entryPerimeter=0;" parent="1" source="5YyMDe5nxf5BBA_hLEBE-1" target="cKvbT1IVt1x6B8q4tEia-1" edge="1">
          <mxGeometry x="0.0417" y="-3" width="160" relative="1" as="geometry">
            <mxPoint x="900" y="535.0000000000001" as="sourcePoint" />
            <mxPoint x="950" y="515" as="targetPoint" />
            <mxPoint as="offset" />
          </mxGeometry>
        </mxCell>
        <mxCell id="33Ppcw9dUa3ymehaOhzk-1" value="Utente Finale" style="shape=umlActor;verticalLabelPosition=bottom;verticalAlign=top;html=1;outlineConnect=0;fontSize=10;" parent="1" vertex="1">
          <mxGeometry x="360" y="347.5" width="30" height="60" as="geometry" />
        </mxCell>
        <mxCell id="33Ppcw9dUa3ymehaOhzk-2" value="&lt;font style=&quot;font-size: 18px;&quot;&gt;UC 2&lt;/font&gt;" style="text;html=1;align=center;verticalAlign=middle;resizable=0;points=[];autosize=1;strokeColor=none;fillColor=none;fontSize=10;" parent="1" vertex="1">
          <mxGeometry x="420" y="100" width="60" height="40" as="geometry" />
        </mxCell>
        <mxCell id="33Ppcw9dUa3ymehaOhzk-3" value="" style="line;strokeWidth=1;fillColor=none;align=left;verticalAlign=middle;spacingTop=-1;spacingLeft=3;spacingRight=3;rotatable=0;labelPosition=right;points=[];portConstraint=eastwest;strokeColor=inherit;fontSize=10;" parent="1" vertex="1">
          <mxGeometry x="400" y="373.5" width="260" height="8" as="geometry" />
        </mxCell>
        <mxCell id="cKvbT1IVt1x6B8q4tEia-1" value="UC 2.4.1 Selezione del file .csv&lt;br&gt;&lt;div&gt;extension points&lt;div&gt;Errore fileTooBig,&lt;/div&gt;&lt;div&gt;Errore invalidCsv&lt;br&gt;&lt;/div&gt;&lt;div&gt;&lt;br&gt;&lt;/div&gt;&lt;/div&gt;" style="html=1;shape=mxgraph.sysml.useCaseExtPt;whiteSpace=wrap;align=center;fontSize=10;container=0;strokeColor=default;verticalAlign=middle;fontFamily=Helvetica;fontColor=default;fillColor=default;" parent="1" vertex="1">
          <mxGeometry x="740" y="520" width="200" height="105" as="geometry" />
        </mxCell>
        <mxCell id="Dy0UiLwu9eEUNzqyioz9-1" value="&lt;font&gt;UC 23 - Visualizzazione errore invalidCsv&lt;br&gt;&lt;/font&gt;" style="ellipse;whiteSpace=wrap;html=1;fontSize=10;strokeColor=default;align=center;verticalAlign=middle;fontFamily=Helvetica;fontColor=default;fillColor=default;" parent="1" vertex="1">
          <mxGeometry x="700" y="169.99500000000012" width="140" height="70" as="geometry" />
        </mxCell>
        <mxCell id="Dy0UiLwu9eEUNzqyioz9-2" value="&amp;lt;&amp;lt;extend&amp;gt;&amp;gt;" style="html=1;verticalAlign=bottom;labelBackgroundColor=none;endArrow=open;endFill=0;dashed=1;rounded=0;entryX=0.5;entryY=0;entryDx=0;entryDy=0;entryPerimeter=0;exitX=1;exitY=1;exitDx=0;exitDy=0;fontSize=10;" parent="1" source="Dy0UiLwu9eEUNzqyioz9-1" target="5YyMDe5nxf5BBA_hLEBE-1" edge="1">
          <mxGeometry x="0.0417" y="-3" width="160" relative="1" as="geometry">
            <mxPoint x="890" y="513.9950000000001" as="sourcePoint" />
            <mxPoint x="948" y="429.9950000000002" as="targetPoint" />
            <mxPoint as="offset" />
          </mxGeometry>
        </mxCell>
        <mxCell id="Dy0UiLwu9eEUNzqyioz9-3" value="condition: Se l&#39;utente seleziona un file CSV che non è formattato correttamente, viene avvisato graficamente&lt;div&gt;extension point:&amp;nbsp;&lt;span style=&quot;text-align: center;&quot;&gt;&amp;nbsp;&lt;/span&gt;&lt;span style=&quot;text-align: center; background-color: transparent; color: light-dark(rgb(0, 0, 0), rgb(255, 255, 255));&quot;&gt;Errore InvalidCsv&lt;/span&gt;&lt;div&gt;&lt;br&gt;&lt;br&gt;&lt;/div&gt;&lt;/div&gt;" style="shape=note;size=15;align=left;spacingLeft=10;html=1;whiteSpace=wrap;fontSize=10;" parent="1" vertex="1">
          <mxGeometry x="446.5" y="164.99500000000018" width="213.5" height="80" as="geometry" />
        </mxCell>
        <mxCell id="Dy0UiLwu9eEUNzqyioz9-4" value="" style="endArrow=none;dashed=1;html=1;rounded=0;entryX=1;entryY=1;entryDx=0;entryDy=0;entryPerimeter=0;fontSize=10;" parent="1" source="Dy0UiLwu9eEUNzqyioz9-5" target="Dy0UiLwu9eEUNzqyioz9-3" edge="1">
          <mxGeometry width="50" height="50" relative="1" as="geometry">
            <mxPoint x="1593.5" y="383.9950000000002" as="sourcePoint" />
            <mxPoint x="1820.5" y="378.9950000000002" as="targetPoint" />
          </mxGeometry>
        </mxCell>
        <mxCell id="Dy0UiLwu9eEUNzqyioz9-5" value="" style="ellipse;whiteSpace=wrap;html=1;aspect=fixed;fontSize=10;" parent="1" vertex="1">
          <mxGeometry x="800" y="279.9950000000002" width="10" height="10" as="geometry" />
        </mxCell>
        <mxCell id="Dy0UiLwu9eEUNzqyioz9-6" value="&lt;font&gt;UC 27 - Visualizzazione errore fileTooBig&lt;br&gt;&lt;/font&gt;" style="ellipse;whiteSpace=wrap;html=1;fontSize=10;" parent="1" vertex="1">
          <mxGeometry x="890" y="169.99500000000012" width="140" height="70" as="geometry" />
        </mxCell>
        <mxCell id="Dy0UiLwu9eEUNzqyioz9-7" value="condition: Se l&#39;utente seleziona un file CSV che ha un peso superiore al limite consentito, viene avvisato graficamente&lt;div&gt;extension point:&amp;nbsp;&lt;span style=&quot;text-align: center;&quot;&gt;&amp;nbsp;&lt;/span&gt;&lt;span style=&quot;text-align: center; background-color: transparent; color: light-dark(rgb(0, 0, 0), rgb(255, 255, 255));&quot;&gt;Errore fileTooBig&lt;br&gt;&lt;/span&gt;&lt;div&gt;&lt;br&gt;&lt;br&gt;&lt;/div&gt;&lt;/div&gt;" style="shape=note;size=15;align=left;spacingLeft=10;html=1;whiteSpace=wrap;fontSize=10;" parent="1" vertex="1">
          <mxGeometry x="1060" y="169.99500000000018" width="213.5" height="80" as="geometry" />
        </mxCell>
        <mxCell id="Dy0UiLwu9eEUNzqyioz9-8" value="" style="endArrow=none;dashed=1;html=1;rounded=0;entryX=0;entryY=1;entryDx=0;entryDy=0;entryPerimeter=0;fontSize=10;exitX=0;exitY=0.5;exitDx=0;exitDy=0;" parent="1" source="Dy0UiLwu9eEUNzqyioz9-10" target="Dy0UiLwu9eEUNzqyioz9-7" edge="1">
          <mxGeometry width="50" height="50" relative="1" as="geometry">
            <mxPoint x="910" y="538.9950000000001" as="sourcePoint" />
            <mxPoint x="1901.5" y="528.9950000000001" as="targetPoint" />
          </mxGeometry>
        </mxCell>
        <mxCell id="Dy0UiLwu9eEUNzqyioz9-9" value="&amp;lt;&amp;lt;extend&amp;gt;&amp;gt;" style="html=1;verticalAlign=bottom;labelBackgroundColor=none;endArrow=open;endFill=0;dashed=1;rounded=0;exitX=0;exitY=1;exitDx=0;exitDy=0;fontSize=10;entryX=0.855;entryY=0.145;entryDx=0;entryDy=0;entryPerimeter=0;" parent="1" source="Dy0UiLwu9eEUNzqyioz9-6" target="5YyMDe5nxf5BBA_hLEBE-1" edge="1">
          <mxGeometry x="0.0417" y="-3" width="160" relative="1" as="geometry">
            <mxPoint x="971" y="663.9950000000001" as="sourcePoint" />
            <mxPoint x="900" y="433.9950000000002" as="targetPoint" />
            <mxPoint as="offset" />
          </mxGeometry>
        </mxCell>
        <mxCell id="Dy0UiLwu9eEUNzqyioz9-10" value="" style="ellipse;whiteSpace=wrap;html=1;aspect=fixed;fontSize=10;" parent="1" vertex="1">
          <mxGeometry x="900" y="299.9950000000002" width="10" height="10" as="geometry" />
        </mxCell>
      </root>
    </mxGraphModel>
  </diagram>
  <diagram name="UC 2.4.1" id="JJT0oCq05Cqb-HiXQ6oP">
    <mxGraphModel dx="1434" dy="738" grid="1" gridSize="10" guides="1" tooltips="1" connect="1" arrows="1" fold="1" page="1" pageScale="1" pageWidth="827" pageHeight="1169" math="0" shadow="0">
      <root>
        <mxCell id="S0PU5bBJ7TbNoU92EZyJ-0" />
        <mxCell id="S0PU5bBJ7TbNoU92EZyJ-1" parent="S0PU5bBJ7TbNoU92EZyJ-0" />
        <mxCell id="S0PU5bBJ7TbNoU92EZyJ-2" value="" style="rounded=0;whiteSpace=wrap;html=1;fontSize=10;" parent="S0PU5bBJ7TbNoU92EZyJ-1" vertex="1">
          <mxGeometry x="450" y="290" width="760" height="340" as="geometry" />
        </mxCell>
        <mxCell id="S0PU5bBJ7TbNoU92EZyJ-3" value="&lt;br&gt;extension points&lt;br&gt;&lt;div&gt;Errore invalidCsv&lt;/div&gt;&lt;div&gt;Errore fileTooBig&lt;br&gt;&lt;/div&gt;" style="html=1;shape=mxgraph.sysml.useCaseExtPt;whiteSpace=wrap;align=center;fontSize=10;" parent="S0PU5bBJ7TbNoU92EZyJ-1" vertex="1">
          <mxGeometry x="660" y="300" width="280" height="135" as="geometry" />
        </mxCell>
        <mxCell id="S0PU5bBJ7TbNoU92EZyJ-4" value="" style="resizable=0;html=1;verticalAlign=middle;align=center;labelBackgroundColor=none;fontStyle=1;fontSize=10;" parent="S0PU5bBJ7TbNoU92EZyJ-3" connectable="0" vertex="1">
          <mxGeometry x="140" y="28.687500000000007" as="geometry" />
        </mxCell>
        <mxCell id="S0PU5bBJ7TbNoU92EZyJ-5" value="UC 2.4.1 - Selezione del&amp;nbsp; file .csv" style="text;html=1;align=center;verticalAlign=middle;resizable=0;points=[];autosize=1;strokeColor=none;fillColor=none;fontSize=10;" parent="S0PU5bBJ7TbNoU92EZyJ-3" vertex="1">
          <mxGeometry x="50" y="26.12903225806452" width="180" height="30" as="geometry" />
        </mxCell>
        <mxCell id="S0PU5bBJ7TbNoU92EZyJ-11" value="&lt;font&gt;UC 23 - Visualizzazione errore invalidCsv&lt;br&gt;&lt;/font&gt;" style="ellipse;whiteSpace=wrap;html=1;fontSize=10;strokeColor=default;align=center;verticalAlign=middle;fontFamily=Helvetica;fontColor=default;fillColor=default;" parent="S0PU5bBJ7TbNoU92EZyJ-1" vertex="1">
          <mxGeometry x="870" y="550" width="140" height="70" as="geometry" />
        </mxCell>
        <mxCell id="S0PU5bBJ7TbNoU92EZyJ-12" value="&amp;lt;&amp;lt;extend&amp;gt;&amp;gt;" style="html=1;verticalAlign=bottom;labelBackgroundColor=none;endArrow=open;endFill=0;dashed=1;rounded=0;entryX=0.673;entryY=0.967;entryDx=0;entryDy=0;entryPerimeter=0;exitX=0.5;exitY=0;exitDx=0;exitDy=0;fontSize=10;" parent="S0PU5bBJ7TbNoU92EZyJ-1" source="S0PU5bBJ7TbNoU92EZyJ-11" target="S0PU5bBJ7TbNoU92EZyJ-3" edge="1">
          <mxGeometry x="0.0417" y="-3" width="160" relative="1" as="geometry">
            <mxPoint x="790" y="515" as="sourcePoint" />
            <mxPoint x="950" y="515" as="targetPoint" />
            <mxPoint as="offset" />
          </mxGeometry>
        </mxCell>
        <mxCell id="S0PU5bBJ7TbNoU92EZyJ-13" value="condition: Se l&#39;utente seleziona un file CSV che non è formattato correttamente, viene avvisato graficamente&lt;div&gt;extension point:&amp;nbsp;&lt;span style=&quot;text-align: center;&quot;&gt;&amp;nbsp;&lt;/span&gt;&lt;span style=&quot;text-align: center; background-color: transparent; color: light-dark(rgb(0, 0, 0), rgb(255, 255, 255));&quot;&gt;Errore InvalidCsv&lt;/span&gt;&lt;div&gt;&lt;br&gt;&lt;br&gt;&lt;/div&gt;&lt;/div&gt;" style="shape=note;size=15;align=left;spacingLeft=10;html=1;whiteSpace=wrap;fontSize=10;" parent="S0PU5bBJ7TbNoU92EZyJ-1" vertex="1">
          <mxGeometry x="970" y="450" width="213.5" height="80" as="geometry" />
        </mxCell>
        <mxCell id="S0PU5bBJ7TbNoU92EZyJ-14" value="" style="endArrow=none;dashed=1;html=1;rounded=0;entryX=0;entryY=0;entryDx=0;entryDy=0;entryPerimeter=0;fontSize=10;" parent="S0PU5bBJ7TbNoU92EZyJ-1" source="S0PU5bBJ7TbNoU92EZyJ-15" target="S0PU5bBJ7TbNoU92EZyJ-13" edge="1">
          <mxGeometry width="50" height="50" relative="1" as="geometry">
            <mxPoint x="1493.5" y="385" as="sourcePoint" />
            <mxPoint x="1720.5" y="380" as="targetPoint" />
          </mxGeometry>
        </mxCell>
        <mxCell id="S0PU5bBJ7TbNoU92EZyJ-15" value="" style="ellipse;whiteSpace=wrap;html=1;aspect=fixed;fontSize=10;" parent="S0PU5bBJ7TbNoU92EZyJ-1" vertex="1">
          <mxGeometry x="910" y="510" width="10" height="10" as="geometry" />
        </mxCell>
        <mxCell id="S0PU5bBJ7TbNoU92EZyJ-16" value="Utente Finale" style="shape=umlActor;verticalLabelPosition=bottom;verticalAlign=top;html=1;outlineConnect=0;fontSize=10;" parent="S0PU5bBJ7TbNoU92EZyJ-1" vertex="1">
          <mxGeometry x="390" y="347.5" width="30" height="60" as="geometry" />
        </mxCell>
        <mxCell id="S0PU5bBJ7TbNoU92EZyJ-17" value="&lt;font style=&quot;font-size: 18px;&quot;&gt;UC 2.4&lt;/font&gt;" style="text;html=1;align=center;verticalAlign=middle;resizable=0;points=[];autosize=1;strokeColor=none;fillColor=none;fontSize=10;" parent="S0PU5bBJ7TbNoU92EZyJ-1" vertex="1">
          <mxGeometry x="450" y="250" width="80" height="40" as="geometry" />
        </mxCell>
        <mxCell id="S0PU5bBJ7TbNoU92EZyJ-18" value="" style="line;strokeWidth=1;fillColor=none;align=left;verticalAlign=middle;spacingTop=-1;spacingLeft=3;spacingRight=3;rotatable=0;labelPosition=right;points=[];portConstraint=eastwest;strokeColor=inherit;fontSize=10;" parent="S0PU5bBJ7TbNoU92EZyJ-1" vertex="1">
          <mxGeometry x="420" y="373.5" width="240" height="8" as="geometry" />
        </mxCell>
        <mxCell id="S0PU5bBJ7TbNoU92EZyJ-20" value="&lt;font&gt;UC 27 - Visualizzazione errore fileTooBig&lt;br&gt;&lt;/font&gt;" style="ellipse;whiteSpace=wrap;html=1;fontSize=10;" parent="S0PU5bBJ7TbNoU92EZyJ-1" vertex="1">
          <mxGeometry x="665" y="550" width="140" height="70" as="geometry" />
        </mxCell>
        <mxCell id="S0PU5bBJ7TbNoU92EZyJ-21" value="condition: Se l&#39;utente seleziona un file CSV che ha un peso superiore al limite consentito, viene avvisato graficamente&lt;div&gt;extension point:&amp;nbsp;&lt;span style=&quot;text-align: center;&quot;&gt;&amp;nbsp;&lt;/span&gt;&lt;span style=&quot;text-align: center; background-color: transparent; color: light-dark(rgb(0, 0, 0), rgb(255, 255, 255));&quot;&gt;Errore fileTooBig&lt;br&gt;&lt;/span&gt;&lt;div&gt;&lt;br&gt;&lt;br&gt;&lt;/div&gt;&lt;/div&gt;" style="shape=note;size=15;align=left;spacingLeft=10;html=1;whiteSpace=wrap;fontSize=10;" parent="S0PU5bBJ7TbNoU92EZyJ-1" vertex="1">
          <mxGeometry x="480" y="450" width="213.5" height="80" as="geometry" />
        </mxCell>
        <mxCell id="S0PU5bBJ7TbNoU92EZyJ-22" value="" style="endArrow=none;dashed=1;html=1;rounded=0;entryX=1;entryY=1;entryDx=0;entryDy=0;entryPerimeter=0;fontSize=10;exitX=0;exitY=0.5;exitDx=0;exitDy=0;" parent="S0PU5bBJ7TbNoU92EZyJ-1" source="S0PU5bBJ7TbNoU92EZyJ-24" target="S0PU5bBJ7TbNoU92EZyJ-21" edge="1">
          <mxGeometry width="50" height="50" relative="1" as="geometry">
            <mxPoint x="810" y="540" as="sourcePoint" />
            <mxPoint x="1801.5" y="530" as="targetPoint" />
          </mxGeometry>
        </mxCell>
        <mxCell id="S0PU5bBJ7TbNoU92EZyJ-23" value="&amp;lt;&amp;lt;extend&amp;gt;&amp;gt;" style="html=1;verticalAlign=bottom;labelBackgroundColor=none;endArrow=open;endFill=0;dashed=1;rounded=0;exitX=0.5;exitY=0;exitDx=0;exitDy=0;fontSize=10;entryX=0.5;entryY=1;entryDx=0;entryDy=0;entryPerimeter=0;" parent="S0PU5bBJ7TbNoU92EZyJ-1" source="S0PU5bBJ7TbNoU92EZyJ-20" target="S0PU5bBJ7TbNoU92EZyJ-3" edge="1">
          <mxGeometry x="0.0417" y="-3" width="160" relative="1" as="geometry">
            <mxPoint x="871" y="665" as="sourcePoint" />
            <mxPoint x="980" y="573" as="targetPoint" />
            <mxPoint as="offset" />
          </mxGeometry>
        </mxCell>
        <mxCell id="S0PU5bBJ7TbNoU92EZyJ-24" value="" style="ellipse;whiteSpace=wrap;html=1;aspect=fixed;fontSize=10;" parent="S0PU5bBJ7TbNoU92EZyJ-1" vertex="1">
          <mxGeometry x="750" y="510" width="10" height="10" as="geometry" />
        </mxCell>
      </root>
    </mxGraphModel>
  </diagram>
  <diagram name="UC 3" id="t6BBBPuEQ9d8hg2xVpwX">
    <mxGraphModel dx="2261" dy="738" grid="1" gridSize="10" guides="1" tooltips="1" connect="1" arrows="1" fold="1" page="1" pageScale="1" pageWidth="827" pageHeight="1169" math="0" shadow="0">
      <root>
        <mxCell id="0" />
        <mxCell id="1" parent="0" />
        <mxCell id="6g6n1cCEnKiYQoIA9F-F-1" value="Utente Finale" style="shape=umlActor;verticalLabelPosition=bottom;verticalAlign=top;html=1;outlineConnect=0;fontSize=10;" parent="1" vertex="1">
          <mxGeometry x="-180" y="290" width="30" height="60" as="geometry" />
        </mxCell>
        <mxCell id="6g6n1cCEnKiYQoIA9F-F-2" value="" style="rounded=0;whiteSpace=wrap;html=1;fontSize=10;" parent="1" vertex="1">
          <mxGeometry x="-10" y="275" width="200" height="85" as="geometry" />
        </mxCell>
        <mxCell id="6g6n1cCEnKiYQoIA9F-F-4" value="&lt;font style=&quot;font-size: 18px;&quot;&gt;3Dataviz&lt;/font&gt;" style="text;html=1;align=center;verticalAlign=middle;resizable=0;points=[];autosize=1;strokeColor=none;fillColor=none;fontSize=10;" parent="1" vertex="1">
          <mxGeometry x="-10" y="235" width="90" height="40" as="geometry" />
        </mxCell>
        <mxCell id="6g6n1cCEnKiYQoIA9F-F-6" value="" style="line;strokeWidth=1;fillColor=none;align=left;verticalAlign=middle;spacingTop=-1;spacingLeft=3;spacingRight=3;rotatable=0;labelPosition=right;points=[];portConstraint=eastwest;strokeColor=inherit;fontSize=10;" parent="1" vertex="1">
          <mxGeometry x="-150" y="316" width="190" height="8" as="geometry" />
        </mxCell>
        <mxCell id="6g6n1cCEnKiYQoIA9F-F-50" value="UC 3 Strumenti visualizzazione dati - Rotazione" style="ellipse;whiteSpace=wrap;html=1;fontSize=10;" parent="1" vertex="1">
          <mxGeometry x="40" y="285" width="140" height="70" as="geometry" />
        </mxCell>
      </root>
    </mxGraphModel>
  </diagram>
  <diagram name="UC 4" id="bybsYp68R8K1a0bv31RD">
    <mxGraphModel dx="2261" dy="738" grid="1" gridSize="10" guides="1" tooltips="1" connect="1" arrows="1" fold="1" page="1" pageScale="1" pageWidth="827" pageHeight="1169" math="0" shadow="0">
      <root>
        <mxCell id="0" />
        <mxCell id="1" parent="0" />
        <mxCell id="tyCohJHja6PHXzu-hR_8-18" value="" style="rounded=0;whiteSpace=wrap;html=1;fontSize=10;" parent="1" vertex="1">
          <mxGeometry x="-80" y="275" width="270" height="85" as="geometry" />
        </mxCell>
        <mxCell id="oA2JA_i0qqu-8V7Q7CZd-1" value="Utente Finale" style="shape=umlActor;verticalLabelPosition=bottom;verticalAlign=top;html=1;outlineConnect=0;fontSize=10;" parent="1" vertex="1">
          <mxGeometry x="-180" y="290" width="30" height="60" as="geometry" />
        </mxCell>
        <mxCell id="oA2JA_i0qqu-8V7Q7CZd-4" value="&lt;font style=&quot;font-size: 18px;&quot;&gt;3Dataviz&lt;/font&gt;" style="text;html=1;align=center;verticalAlign=middle;resizable=0;points=[];autosize=1;strokeColor=none;fillColor=none;fontSize=10;" parent="1" vertex="1">
          <mxGeometry x="-80" y="235" width="90" height="40" as="geometry" />
        </mxCell>
        <mxCell id="oA2JA_i0qqu-8V7Q7CZd-6" value="" style="line;strokeWidth=1;fillColor=none;align=left;verticalAlign=middle;spacingTop=-1;spacingLeft=3;spacingRight=3;rotatable=0;labelPosition=right;points=[];portConstraint=eastwest;strokeColor=inherit;fontSize=10;" parent="1" vertex="1">
          <mxGeometry x="-150" y="316" width="190" height="8" as="geometry" />
        </mxCell>
        <mxCell id="oA2JA_i0qqu-8V7Q7CZd-50" value="UC 4 - Strumenti visualizzazione dati - PAN orizzontale" style="ellipse;whiteSpace=wrap;html=1;fontSize=10;" parent="1" vertex="1">
          <mxGeometry x="40" y="285" width="140" height="70" as="geometry" />
        </mxCell>
      </root>
    </mxGraphModel>
  </diagram>
  <diagram name="UC 5" id="lyGS0AmLNcp6ouBO7E17">
    <mxGraphModel dx="2261" dy="738" grid="1" gridSize="10" guides="1" tooltips="1" connect="1" arrows="1" fold="1" page="1" pageScale="1" pageWidth="827" pageHeight="1169" math="0" shadow="0">
      <root>
        <mxCell id="0" />
        <mxCell id="1" parent="0" />
        <mxCell id="c7TcBHcIlx5cW6_HFplu-1" value="Utente Finale" style="shape=umlActor;verticalLabelPosition=bottom;verticalAlign=top;html=1;outlineConnect=0;fontSize=10;" parent="1" vertex="1">
          <mxGeometry x="-180" y="290" width="30" height="60" as="geometry" />
        </mxCell>
        <mxCell id="c7TcBHcIlx5cW6_HFplu-2" value="" style="rounded=0;whiteSpace=wrap;html=1;fontSize=10;" parent="1" vertex="1">
          <mxGeometry x="-80" y="275" width="270" height="85" as="geometry" />
        </mxCell>
        <mxCell id="c7TcBHcIlx5cW6_HFplu-4" value="&lt;font style=&quot;font-size: 18px;&quot;&gt;3Dataviz&lt;/font&gt;" style="text;html=1;align=center;verticalAlign=middle;resizable=0;points=[];autosize=1;strokeColor=none;fillColor=none;fontSize=10;" parent="1" vertex="1">
          <mxGeometry x="-80" y="235" width="90" height="40" as="geometry" />
        </mxCell>
        <mxCell id="c7TcBHcIlx5cW6_HFplu-6" value="" style="line;strokeWidth=1;fillColor=none;align=left;verticalAlign=middle;spacingTop=-1;spacingLeft=3;spacingRight=3;rotatable=0;labelPosition=right;points=[];portConstraint=eastwest;strokeColor=inherit;fontSize=10;" parent="1" vertex="1">
          <mxGeometry x="-150" y="316" width="190" height="8" as="geometry" />
        </mxCell>
        <mxCell id="c7TcBHcIlx5cW6_HFplu-50" value="UC 5 - Strumenti visualizzazione dati - PAN verticale" style="ellipse;whiteSpace=wrap;html=1;fontSize=10;" parent="1" vertex="1">
          <mxGeometry x="40" y="285" width="140" height="70" as="geometry" />
        </mxCell>
      </root>
    </mxGraphModel>
  </diagram>
  <diagram name="UC 6" id="qTktsawP199vxn85z8lQ">
    <mxGraphModel dx="2261" dy="738" grid="1" gridSize="10" guides="1" tooltips="1" connect="1" arrows="1" fold="1" page="1" pageScale="1" pageWidth="827" pageHeight="1169" math="0" shadow="0">
      <root>
        <mxCell id="0" />
        <mxCell id="1" parent="0" />
        <mxCell id="EnbTXzuIsdCN_mZaZvCD-1" value="Utente Finale" style="shape=umlActor;verticalLabelPosition=bottom;verticalAlign=top;html=1;outlineConnect=0;fontSize=10;" parent="1" vertex="1">
          <mxGeometry x="-180" y="290" width="30" height="60" as="geometry" />
        </mxCell>
        <mxCell id="EnbTXzuIsdCN_mZaZvCD-2" value="" style="rounded=0;whiteSpace=wrap;html=1;fontSize=10;" parent="1" vertex="1">
          <mxGeometry x="-80" y="275" width="270" height="85" as="geometry" />
        </mxCell>
        <mxCell id="EnbTXzuIsdCN_mZaZvCD-4" value="&lt;font style=&quot;font-size: 18px;&quot;&gt;3Dataviz&lt;/font&gt;" style="text;html=1;align=center;verticalAlign=middle;resizable=0;points=[];autosize=1;strokeColor=none;fillColor=none;fontSize=10;" parent="1" vertex="1">
          <mxGeometry x="-80" y="235" width="90" height="40" as="geometry" />
        </mxCell>
        <mxCell id="EnbTXzuIsdCN_mZaZvCD-6" value="" style="line;strokeWidth=1;fillColor=none;align=left;verticalAlign=middle;spacingTop=-1;spacingLeft=3;spacingRight=3;rotatable=0;labelPosition=right;points=[];portConstraint=eastwest;strokeColor=inherit;fontSize=10;" parent="1" vertex="1">
          <mxGeometry x="-150" y="316" width="190" height="8" as="geometry" />
        </mxCell>
        <mxCell id="EnbTXzuIsdCN_mZaZvCD-50" value="UC 6 - Strumenti visualizzazione dati - Zoom" style="ellipse;whiteSpace=wrap;html=1;fontSize=10;" parent="1" vertex="1">
          <mxGeometry x="40" y="285" width="140" height="70" as="geometry" />
        </mxCell>
      </root>
    </mxGraphModel>
  </diagram>
  <diagram name="UC 7" id="86Vf7JTxlm2LQWC1tGhK">
    <mxGraphModel dx="2261" dy="738" grid="1" gridSize="10" guides="1" tooltips="1" connect="1" arrows="1" fold="1" page="1" pageScale="1" pageWidth="827" pageHeight="1169" math="0" shadow="0">
      <root>
        <mxCell id="0" />
        <mxCell id="1" parent="0" />
        <mxCell id="Y_-gXhxH4GmUdk_l8Phz-1" value="Utente Finale" style="shape=umlActor;verticalLabelPosition=bottom;verticalAlign=top;html=1;outlineConnect=0;fontSize=10;" parent="1" vertex="1">
          <mxGeometry x="-180" y="290" width="30" height="60" as="geometry" />
        </mxCell>
        <mxCell id="Y_-gXhxH4GmUdk_l8Phz-2" value="" style="rounded=0;whiteSpace=wrap;html=1;fontSize=10;" parent="1" vertex="1">
          <mxGeometry x="-80" y="275" width="270" height="85" as="geometry" />
        </mxCell>
        <mxCell id="Y_-gXhxH4GmUdk_l8Phz-4" value="&lt;font style=&quot;font-size: 18px;&quot;&gt;3Dataviz&lt;/font&gt;" style="text;html=1;align=center;verticalAlign=middle;resizable=0;points=[];autosize=1;strokeColor=none;fillColor=none;fontSize=10;" parent="1" vertex="1">
          <mxGeometry x="-80" y="235" width="90" height="40" as="geometry" />
        </mxCell>
        <mxCell id="Y_-gXhxH4GmUdk_l8Phz-6" value="" style="line;strokeWidth=1;fillColor=none;align=left;verticalAlign=middle;spacingTop=-1;spacingLeft=3;spacingRight=3;rotatable=0;labelPosition=right;points=[];portConstraint=eastwest;strokeColor=inherit;fontSize=10;" parent="1" vertex="1">
          <mxGeometry x="-150" y="316" width="190" height="8" as="geometry" />
        </mxCell>
        <mxCell id="Y_-gXhxH4GmUdk_l8Phz-50" value="UC 7 - Strumenti visualizzazione dati - Auto posizionamento" style="ellipse;whiteSpace=wrap;html=1;fontSize=10;" parent="1" vertex="1">
          <mxGeometry x="40" y="285" width="140" height="70" as="geometry" />
        </mxCell>
      </root>
    </mxGraphModel>
  </diagram>
  <diagram name="UC 8" id="df3QB2TmBwyftSxNafbB">
    <mxGraphModel dx="2261" dy="738" grid="1" gridSize="10" guides="1" tooltips="1" connect="1" arrows="1" fold="1" page="1" pageScale="1" pageWidth="827" pageHeight="1169" math="0" shadow="0">
      <root>
        <mxCell id="0" />
        <mxCell id="1" parent="0" />
        <mxCell id="lyAURuwJ-UNF4jXW923a-1" value="Utente Finale" style="shape=umlActor;verticalLabelPosition=bottom;verticalAlign=top;html=1;outlineConnect=0;fontSize=10;" parent="1" vertex="1">
          <mxGeometry x="-180" y="290" width="30" height="60" as="geometry" />
        </mxCell>
        <mxCell id="lyAURuwJ-UNF4jXW923a-2" value="" style="rounded=0;whiteSpace=wrap;html=1;fontSize=10;" parent="1" vertex="1">
          <mxGeometry x="-80" y="275" width="270" height="85" as="geometry" />
        </mxCell>
        <mxCell id="lyAURuwJ-UNF4jXW923a-4" value="&lt;font style=&quot;font-size: 18px;&quot;&gt;3Dataviz&lt;/font&gt;" style="text;html=1;align=center;verticalAlign=middle;resizable=0;points=[];autosize=1;strokeColor=none;fillColor=none;fontSize=10;" parent="1" vertex="1">
          <mxGeometry x="-80" y="235" width="90" height="40" as="geometry" />
        </mxCell>
        <mxCell id="lyAURuwJ-UNF4jXW923a-6" value="" style="line;strokeWidth=1;fillColor=none;align=left;verticalAlign=middle;spacingTop=-1;spacingLeft=3;spacingRight=3;rotatable=0;labelPosition=right;points=[];portConstraint=eastwest;strokeColor=inherit;fontSize=10;" parent="1" vertex="1">
          <mxGeometry x="-150" y="316" width="190" height="8" as="geometry" />
        </mxCell>
        <mxCell id="lyAURuwJ-UNF4jXW923a-50" value="UC 8 - Visualizzazione informazioni durante hover di una barra" style="ellipse;whiteSpace=wrap;html=1;fontSize=10;" parent="1" vertex="1">
          <mxGeometry x="40" y="285" width="140" height="70" as="geometry" />
        </mxCell>
      </root>
    </mxGraphModel>
  </diagram>
  <diagram name="UC 9" id="lutEZ-NAjI8eaNUb9STd">
    <mxGraphModel dx="2261" dy="738" grid="1" gridSize="10" guides="1" tooltips="1" connect="1" arrows="1" fold="1" page="1" pageScale="1" pageWidth="827" pageHeight="1169" math="0" shadow="0">
      <root>
        <mxCell id="0" />
        <mxCell id="1" parent="0" />
        <mxCell id="Pb92eHnDBpLbZJowajNM-1" value="Utente Finale" style="shape=umlActor;verticalLabelPosition=bottom;verticalAlign=top;html=1;outlineConnect=0;fontSize=10;" parent="1" vertex="1">
          <mxGeometry x="-350" y="290" width="30" height="60" as="geometry" />
        </mxCell>
        <mxCell id="Pb92eHnDBpLbZJowajNM-2" value="" style="rounded=0;whiteSpace=wrap;html=1;fontSize=10;" parent="1" vertex="1">
          <mxGeometry x="-260" y="275" width="290" height="85" as="geometry" />
        </mxCell>
        <mxCell id="Pb92eHnDBpLbZJowajNM-4" value="&lt;font style=&quot;font-size: 18px;&quot;&gt;3Dataviz&lt;/font&gt;" style="text;html=1;align=center;verticalAlign=middle;resizable=0;points=[];autosize=1;strokeColor=none;fillColor=none;fontSize=10;" parent="1" vertex="1">
          <mxGeometry x="-260" y="235" width="90" height="40" as="geometry" />
        </mxCell>
        <mxCell id="Pb92eHnDBpLbZJowajNM-6" value="" style="line;strokeWidth=1;fillColor=none;align=left;verticalAlign=middle;spacingTop=-1;spacingLeft=3;spacingRight=3;rotatable=0;labelPosition=right;points=[];portConstraint=eastwest;strokeColor=inherit;fontSize=10;" parent="1" vertex="1">
          <mxGeometry x="-320" y="316" width="300" height="8" as="geometry" />
        </mxCell>
        <mxCell id="Pb92eHnDBpLbZJowajNM-50" value="UC 9 - Click su una barra del grafico" style="ellipse;whiteSpace=wrap;html=1;fontSize=10;" parent="1" vertex="1">
          <mxGeometry x="-120" y="280" width="140" height="70" as="geometry" />
        </mxCell>
      </root>
    </mxGraphModel>
  </diagram>
  <diagram name="UC 9.1" id="czuu4sQuCMwavrAtqW5I">
    <mxGraphModel dx="1434" dy="738" grid="1" gridSize="10" guides="1" tooltips="1" connect="1" arrows="1" fold="1" page="1" pageScale="1" pageWidth="827" pageHeight="1169" math="0" shadow="0">
      <root>
        <mxCell id="0" />
        <mxCell id="1" parent="0" />
        <mxCell id="AJIoaV8wU5rpr1n4Ho2P-1" value="" style="rounded=0;whiteSpace=wrap;html=1;fontSize=10;" parent="1" vertex="1">
          <mxGeometry x="240" y="260" width="250" height="110" as="geometry" />
        </mxCell>
        <mxCell id="AJIoaV8wU5rpr1n4Ho2P-2" value="&lt;font&gt;UC 9.1 - Visualizzazione informazioni dopo click di una barra&amp;nbsp;&lt;/font&gt;" style="ellipse;whiteSpace=wrap;html=1;fontSize=10;" parent="1" vertex="1">
          <mxGeometry x="330" y="280" width="140" height="70" as="geometry" />
        </mxCell>
        <mxCell id="AJIoaV8wU5rpr1n4Ho2P-3" value="Utente Finale" style="shape=umlActor;verticalLabelPosition=bottom;verticalAlign=top;html=1;outlineConnect=0;fontSize=10;" parent="1" vertex="1">
          <mxGeometry x="160" y="285" width="30" height="60" as="geometry" />
        </mxCell>
        <mxCell id="AJIoaV8wU5rpr1n4Ho2P-4" value="&lt;font style=&quot;font-size: 19px;&quot;&gt;UC 9&lt;/font&gt;" style="text;html=1;align=center;verticalAlign=middle;resizable=0;points=[];autosize=1;strokeColor=none;fillColor=none;fontSize=10;" parent="1" vertex="1">
          <mxGeometry x="240" y="220" width="70" height="40" as="geometry" />
        </mxCell>
        <mxCell id="AJIoaV8wU5rpr1n4Ho2P-5" value="" style="line;strokeWidth=1;fillColor=none;align=left;verticalAlign=middle;spacingTop=-1;spacingLeft=3;spacingRight=3;rotatable=0;labelPosition=right;points=[];portConstraint=eastwest;strokeColor=inherit;fontSize=10;" parent="1" vertex="1">
          <mxGeometry x="190" y="311" width="140" height="8" as="geometry" />
        </mxCell>
      </root>
    </mxGraphModel>
  </diagram>
  <diagram name="UC 9.2" id="9f_wCVN4Y9zUQm-yeyI4">
    <mxGraphModel dx="1434" dy="738" grid="1" gridSize="10" guides="1" tooltips="1" connect="1" arrows="1" fold="1" page="1" pageScale="1" pageWidth="827" pageHeight="1169" math="0" shadow="0">
      <root>
        <mxCell id="0" />
        <mxCell id="1" parent="0" />
        <mxCell id="E1bpAJcGHGqp4BjqhwvW-1" value="" style="rounded=0;whiteSpace=wrap;html=1;fontSize=10;" parent="1" vertex="1">
          <mxGeometry x="240" y="260" width="250" height="110" as="geometry" />
        </mxCell>
        <mxCell id="E1bpAJcGHGqp4BjqhwvW-2" value="&lt;font&gt;UC 9.2 - Scelta dell&#39;opacizzazione di una barra&amp;nbsp;&lt;/font&gt;" style="ellipse;whiteSpace=wrap;html=1;fontSize=10;" parent="1" vertex="1">
          <mxGeometry x="330" y="280" width="140" height="70" as="geometry" />
        </mxCell>
        <mxCell id="E1bpAJcGHGqp4BjqhwvW-3" value="Utente Finale" style="shape=umlActor;verticalLabelPosition=bottom;verticalAlign=top;html=1;outlineConnect=0;fontSize=10;" parent="1" vertex="1">
          <mxGeometry x="160" y="285" width="30" height="60" as="geometry" />
        </mxCell>
        <mxCell id="E1bpAJcGHGqp4BjqhwvW-4" value="&lt;font style=&quot;font-size: 19px;&quot;&gt;UC 9&lt;/font&gt;" style="text;html=1;align=center;verticalAlign=middle;resizable=0;points=[];autosize=1;strokeColor=none;fillColor=none;fontSize=10;" parent="1" vertex="1">
          <mxGeometry x="240" y="220" width="70" height="40" as="geometry" />
        </mxCell>
        <mxCell id="E1bpAJcGHGqp4BjqhwvW-5" value="" style="line;strokeWidth=1;fillColor=none;align=left;verticalAlign=middle;spacingTop=-1;spacingLeft=3;spacingRight=3;rotatable=0;labelPosition=right;points=[];portConstraint=eastwest;strokeColor=inherit;fontSize=10;" parent="1" vertex="1">
          <mxGeometry x="190" y="311" width="140" height="8" as="geometry" />
        </mxCell>
      </root>
    </mxGraphModel>
  </diagram>
  <diagram name="UC 9.3" id="5O7dh4BEXdtQC4raizT-">
    <mxGraphModel dx="1434" dy="738" grid="1" gridSize="10" guides="1" tooltips="1" connect="1" arrows="1" fold="1" page="1" pageScale="1" pageWidth="827" pageHeight="1169" math="0" shadow="0">
      <root>
        <mxCell id="0" />
        <mxCell id="1" parent="0" />
        <mxCell id="XrJcOzz9n2Z6V4HQue86-1" value="" style="rounded=0;whiteSpace=wrap;html=1;fontSize=10;" parent="1" vertex="1">
          <mxGeometry x="240" y="260" width="250" height="110" as="geometry" />
        </mxCell>
        <mxCell id="XrJcOzz9n2Z6V4HQue86-2" value="&lt;font&gt;UC 9.3 - Opacizzazione dei dati con valore minore di una barra selezionata&lt;/font&gt;" style="ellipse;whiteSpace=wrap;html=1;fontSize=10;" parent="1" vertex="1">
          <mxGeometry x="330" y="280" width="140" height="70" as="geometry" />
        </mxCell>
        <mxCell id="XrJcOzz9n2Z6V4HQue86-3" value="Utente Finale" style="shape=umlActor;verticalLabelPosition=bottom;verticalAlign=top;html=1;outlineConnect=0;fontSize=10;" parent="1" vertex="1">
          <mxGeometry x="160" y="285" width="30" height="60" as="geometry" />
        </mxCell>
        <mxCell id="XrJcOzz9n2Z6V4HQue86-4" value="&lt;font style=&quot;font-size: 18px;&quot;&gt;UC 9&lt;/font&gt;" style="text;html=1;align=center;verticalAlign=middle;resizable=0;points=[];autosize=1;strokeColor=none;fillColor=none;fontSize=10;" parent="1" vertex="1">
          <mxGeometry x="240" y="220" width="60" height="40" as="geometry" />
        </mxCell>
        <mxCell id="XrJcOzz9n2Z6V4HQue86-5" value="" style="line;strokeWidth=1;fillColor=none;align=left;verticalAlign=middle;spacingTop=-1;spacingLeft=3;spacingRight=3;rotatable=0;labelPosition=right;points=[];portConstraint=eastwest;strokeColor=inherit;fontSize=10;" parent="1" vertex="1">
          <mxGeometry x="190" y="311" width="140" height="8" as="geometry" />
        </mxCell>
      </root>
    </mxGraphModel>
  </diagram>
  <diagram name="UC 9.4" id="Ru-bqodoMN8asDUwIj4H">
    <mxGraphModel dx="1434" dy="738" grid="1" gridSize="10" guides="1" tooltips="1" connect="1" arrows="1" fold="1" page="1" pageScale="1" pageWidth="827" pageHeight="1169" math="0" shadow="0">
      <root>
        <mxCell id="0" />
        <mxCell id="1" parent="0" />
        <mxCell id="psnQZ0ZtWs2zmoUXtEV0-1" value="" style="rounded=0;whiteSpace=wrap;html=1;fontSize=10;" parent="1" vertex="1">
          <mxGeometry x="240" y="260" width="250" height="110" as="geometry" />
        </mxCell>
        <mxCell id="psnQZ0ZtWs2zmoUXtEV0-2" value="&lt;font&gt;UC 9.4 Opacizzazione dei dati con valore maggiore di una barra selezionata&lt;/font&gt;" style="ellipse;whiteSpace=wrap;html=1;fontSize=10;" parent="1" vertex="1">
          <mxGeometry x="330" y="280" width="140" height="70" as="geometry" />
        </mxCell>
        <mxCell id="psnQZ0ZtWs2zmoUXtEV0-3" value="Utente Finale" style="shape=umlActor;verticalLabelPosition=bottom;verticalAlign=top;html=1;outlineConnect=0;fontSize=10;" parent="1" vertex="1">
          <mxGeometry x="160" y="285" width="30" height="60" as="geometry" />
        </mxCell>
        <mxCell id="psnQZ0ZtWs2zmoUXtEV0-4" value="&lt;font style=&quot;font-size: 18px;&quot;&gt;UC 9&lt;/font&gt;" style="text;html=1;align=center;verticalAlign=middle;resizable=0;points=[];autosize=1;strokeColor=none;fillColor=none;fontSize=10;" parent="1" vertex="1">
          <mxGeometry x="240" y="220" width="60" height="40" as="geometry" />
        </mxCell>
        <mxCell id="psnQZ0ZtWs2zmoUXtEV0-5" value="" style="line;strokeWidth=1;fillColor=none;align=left;verticalAlign=middle;spacingTop=-1;spacingLeft=3;spacingRight=3;rotatable=0;labelPosition=right;points=[];portConstraint=eastwest;strokeColor=inherit;fontSize=10;" parent="1" vertex="1">
          <mxGeometry x="190" y="311" width="140" height="8" as="geometry" />
        </mxCell>
      </root>
    </mxGraphModel>
  </diagram>
  <diagram name="UC 9.5" id="uZd8l7YqISay60Fuic-W">
    <mxGraphModel dx="1434" dy="738" grid="1" gridSize="10" guides="1" tooltips="1" connect="1" arrows="1" fold="1" page="1" pageScale="1" pageWidth="827" pageHeight="1169" math="0" shadow="0">
      <root>
        <mxCell id="0" />
        <mxCell id="1" parent="0" />
        <mxCell id="CdNNjU6WNAGqDIewxuwr-1" value="" style="rounded=0;whiteSpace=wrap;html=1;fontSize=10;" parent="1" vertex="1">
          <mxGeometry x="240" y="260" width="250" height="110" as="geometry" />
        </mxCell>
        <mxCell id="CdNNjU6WNAGqDIewxuwr-2" value="&lt;font&gt;UC 9.5 Reimpostare la visualizzazione della barra selezionata&lt;/font&gt;" style="ellipse;whiteSpace=wrap;html=1;fontSize=10;" parent="1" vertex="1">
          <mxGeometry x="330" y="280" width="140" height="70" as="geometry" />
        </mxCell>
        <mxCell id="CdNNjU6WNAGqDIewxuwr-3" value="Utente Finale" style="shape=umlActor;verticalLabelPosition=bottom;verticalAlign=top;html=1;outlineConnect=0;fontSize=10;" parent="1" vertex="1">
          <mxGeometry x="160" y="285" width="30" height="60" as="geometry" />
        </mxCell>
        <mxCell id="CdNNjU6WNAGqDIewxuwr-4" value="&lt;font style=&quot;font-size: 18px;&quot;&gt;UC 9&lt;/font&gt;" style="text;html=1;align=center;verticalAlign=middle;resizable=0;points=[];autosize=1;strokeColor=none;fillColor=none;fontSize=10;" parent="1" vertex="1">
          <mxGeometry x="240" y="220" width="60" height="40" as="geometry" />
        </mxCell>
        <mxCell id="CdNNjU6WNAGqDIewxuwr-5" value="" style="line;strokeWidth=1;fillColor=none;align=left;verticalAlign=middle;spacingTop=-1;spacingLeft=3;spacingRight=3;rotatable=0;labelPosition=right;points=[];portConstraint=eastwest;strokeColor=inherit;fontSize=10;" parent="1" vertex="1">
          <mxGeometry x="190" y="311" width="140" height="8" as="geometry" />
        </mxCell>
      </root>
    </mxGraphModel>
  </diagram>
  <diagram name="UC 10" id="lELYiJuht0xk2As0SrB5">
    <mxGraphModel dx="2261" dy="738" grid="1" gridSize="10" guides="1" tooltips="1" connect="1" arrows="1" fold="1" page="1" pageScale="1" pageWidth="827" pageHeight="1169" math="0" shadow="0">
      <root>
        <mxCell id="0" />
        <mxCell id="1" parent="0" />
        <mxCell id="qdNLbgEvtZbvnm6aFlHY-1" value="Utente Finale" style="shape=umlActor;verticalLabelPosition=bottom;verticalAlign=top;html=1;outlineConnect=0;fontSize=10;" parent="1" vertex="1">
          <mxGeometry x="-180" y="290" width="30" height="60" as="geometry" />
        </mxCell>
        <mxCell id="qdNLbgEvtZbvnm6aFlHY-2" value="" style="rounded=0;whiteSpace=wrap;html=1;fontSize=10;" parent="1" vertex="1">
          <mxGeometry x="-80" y="275" width="270" height="85" as="geometry" />
        </mxCell>
        <mxCell id="qdNLbgEvtZbvnm6aFlHY-4" value="&lt;font style=&quot;font-size: 18px;&quot;&gt;3Dataviz&lt;/font&gt;" style="text;html=1;align=center;verticalAlign=middle;resizable=0;points=[];autosize=1;strokeColor=none;fillColor=none;fontSize=10;" parent="1" vertex="1">
          <mxGeometry x="-80" y="235" width="90" height="40" as="geometry" />
        </mxCell>
        <mxCell id="qdNLbgEvtZbvnm6aFlHY-6" value="" style="line;strokeWidth=1;fillColor=none;align=left;verticalAlign=middle;spacingTop=-1;spacingLeft=3;spacingRight=3;rotatable=0;labelPosition=right;points=[];portConstraint=eastwest;strokeColor=inherit;fontSize=10;" parent="1" vertex="1">
          <mxGeometry x="-150" y="316" width="190" height="8" as="geometry" />
        </mxCell>
        <mxCell id="qdNLbgEvtZbvnm6aFlHY-50" value="UC 10 - Visualizzazione del valore medio globale" style="ellipse;whiteSpace=wrap;html=1;fontSize=10;" parent="1" vertex="1">
          <mxGeometry x="40" y="285" width="140" height="70" as="geometry" />
        </mxCell>
      </root>
    </mxGraphModel>
  </diagram>
  <diagram name="UC 11" id="i1ELyER0_Z3lOiqpyJoy">
    <mxGraphModel dx="2261" dy="738" grid="1" gridSize="10" guides="1" tooltips="1" connect="1" arrows="1" fold="1" page="1" pageScale="1" pageWidth="827" pageHeight="1169" math="0" shadow="0">
      <root>
        <mxCell id="0" />
        <mxCell id="1" parent="0" />
        <mxCell id="BQT52JhfEMuQ6ZYsprY9-1" value="Utente Finale" style="shape=umlActor;verticalLabelPosition=bottom;verticalAlign=top;html=1;outlineConnect=0;fontSize=10;" parent="1" vertex="1">
          <mxGeometry x="-180" y="290" width="30" height="60" as="geometry" />
        </mxCell>
        <mxCell id="BQT52JhfEMuQ6ZYsprY9-2" value="" style="rounded=0;whiteSpace=wrap;html=1;fontSize=10;" parent="1" vertex="1">
          <mxGeometry x="-80" y="275" width="270" height="85" as="geometry" />
        </mxCell>
        <mxCell id="BQT52JhfEMuQ6ZYsprY9-4" value="&lt;font style=&quot;font-size: 18px;&quot;&gt;3Dataviz&lt;/font&gt;" style="text;html=1;align=center;verticalAlign=middle;resizable=0;points=[];autosize=1;strokeColor=none;fillColor=none;fontSize=10;" parent="1" vertex="1">
          <mxGeometry x="-80" y="235" width="90" height="40" as="geometry" />
        </mxCell>
        <mxCell id="BQT52JhfEMuQ6ZYsprY9-6" value="" style="line;strokeWidth=1;fillColor=none;align=left;verticalAlign=middle;spacingTop=-1;spacingLeft=3;spacingRight=3;rotatable=0;labelPosition=right;points=[];portConstraint=eastwest;strokeColor=inherit;fontSize=10;" parent="1" vertex="1">
          <mxGeometry x="-150" y="316" width="190" height="8" as="geometry" />
        </mxCell>
        <mxCell id="BQT52JhfEMuQ6ZYsprY9-50" value="UC 11 - Visualizzazione dati maggiori della media globale" style="ellipse;whiteSpace=wrap;html=1;fontSize=10;" parent="1" vertex="1">
          <mxGeometry x="40" y="285" width="140" height="70" as="geometry" />
        </mxCell>
      </root>
    </mxGraphModel>
  </diagram>
  <diagram name="UC 12" id="dwgj-ZEFGiaaqdsmAB_3">
    <mxGraphModel dx="2261" dy="738" grid="1" gridSize="10" guides="1" tooltips="1" connect="1" arrows="1" fold="1" page="1" pageScale="1" pageWidth="827" pageHeight="1169" math="0" shadow="0">
      <root>
        <mxCell id="0" />
        <mxCell id="1" parent="0" />
        <mxCell id="VVSlEypBAYFciRjP8whZ-1" value="Utente Finale" style="shape=umlActor;verticalLabelPosition=bottom;verticalAlign=top;html=1;outlineConnect=0;fontSize=10;" parent="1" vertex="1">
          <mxGeometry x="-180" y="290" width="30" height="60" as="geometry" />
        </mxCell>
        <mxCell id="VVSlEypBAYFciRjP8whZ-2" value="" style="rounded=0;whiteSpace=wrap;html=1;fontSize=10;" parent="1" vertex="1">
          <mxGeometry x="-80" y="275" width="280" height="85" as="geometry" />
        </mxCell>
        <mxCell id="VVSlEypBAYFciRjP8whZ-4" value="&lt;font style=&quot;font-size: 19px;&quot;&gt;3Dataviz&lt;/font&gt;" style="text;html=1;align=center;verticalAlign=middle;resizable=0;points=[];autosize=1;strokeColor=none;fillColor=none;fontSize=10;" parent="1" vertex="1">
          <mxGeometry x="-80" y="235" width="100" height="40" as="geometry" />
        </mxCell>
        <mxCell id="VVSlEypBAYFciRjP8whZ-6" value="" style="line;strokeWidth=1;fillColor=none;align=left;verticalAlign=middle;spacingTop=-1;spacingLeft=3;spacingRight=3;rotatable=0;labelPosition=right;points=[];portConstraint=eastwest;strokeColor=inherit;fontSize=10;" parent="1" vertex="1">
          <mxGeometry x="-150" y="316" width="190" height="8" as="geometry" />
        </mxCell>
        <mxCell id="VVSlEypBAYFciRjP8whZ-50" value="UC 12 - Visualizzazione dati minori della media globale" style="ellipse;whiteSpace=wrap;html=1;fontSize=10;" parent="1" vertex="1">
          <mxGeometry x="40" y="285" width="140" height="70" as="geometry" />
        </mxCell>
      </root>
    </mxGraphModel>
  </diagram>
  <diagram name="UC 13" id="eqPCT6x8trdhP6ccKm3o">
    <mxGraphModel dx="2261" dy="738" grid="1" gridSize="10" guides="1" tooltips="1" connect="1" arrows="1" fold="1" page="1" pageScale="1" pageWidth="827" pageHeight="1169" math="0" shadow="0">
      <root>
        <mxCell id="0" />
        <mxCell id="1" parent="0" />
        <mxCell id="B10a1BneLOolvc8b8i-2-1" value="Utente Finale" style="shape=umlActor;verticalLabelPosition=bottom;verticalAlign=top;html=1;outlineConnect=0;fontSize=10;" parent="1" vertex="1">
          <mxGeometry x="-180" y="290" width="30" height="60" as="geometry" />
        </mxCell>
        <mxCell id="B10a1BneLOolvc8b8i-2-2" value="" style="rounded=0;whiteSpace=wrap;html=1;fontSize=10;" parent="1" vertex="1">
          <mxGeometry x="-80" y="240" width="520" height="270" as="geometry" />
        </mxCell>
        <mxCell id="B10a1BneLOolvc8b8i-2-4" value="&lt;font style=&quot;font-size: 19px;&quot;&gt;3Dataviz&lt;/font&gt;" style="text;html=1;align=center;verticalAlign=middle;resizable=0;points=[];autosize=1;strokeColor=none;fillColor=none;fontSize=10;" parent="1" vertex="1">
          <mxGeometry x="-80" y="200" width="100" height="40" as="geometry" />
        </mxCell>
        <mxCell id="B10a1BneLOolvc8b8i-2-6" value="" style="line;strokeWidth=1;fillColor=none;align=left;verticalAlign=middle;spacingTop=-1;spacingLeft=3;spacingRight=3;rotatable=0;labelPosition=right;points=[];portConstraint=eastwest;strokeColor=inherit;fontSize=10;" parent="1" vertex="1">
          <mxGeometry x="-150" y="316" width="190" height="8" as="geometry" />
        </mxCell>
        <mxCell id="ksHoMfuuDVqSO_xDfYWN-3" value="&lt;br&gt;extension points&lt;div&gt;Errore&amp;nbsp;&lt;span style=&quot;background-color: transparent; color: light-dark(rgb(0, 0, 0), rgb(255, 255, 255));&quot;&gt;invalidArguments&lt;/span&gt;&lt;/div&gt;" style="html=1;shape=mxgraph.sysml.useCaseExtPt;whiteSpace=wrap;align=center;fontSize=10;" parent="1" vertex="1">
          <mxGeometry x="10" y="260" width="360" height="105" as="geometry" />
        </mxCell>
        <mxCell id="ksHoMfuuDVqSO_xDfYWN-4" value="" style="resizable=0;html=1;verticalAlign=middle;align=center;labelBackgroundColor=none;fontStyle=1;fontSize=10;" parent="ksHoMfuuDVqSO_xDfYWN-3" connectable="0" vertex="1">
          <mxGeometry x="148.23529411764702" y="22.3125" as="geometry" />
        </mxCell>
        <mxCell id="fmIhSFrGQhclKaK8SAoz-1" value="UC 13 - Visualizzazione dati con altezza compresa tra un intervallo" style="text;html=1;align=center;verticalAlign=middle;resizable=0;points=[];autosize=1;strokeColor=none;fillColor=none;fontSize=10;" parent="ksHoMfuuDVqSO_xDfYWN-3" vertex="1">
          <mxGeometry x="21.17647058823529" y="10" width="320" height="30" as="geometry" />
        </mxCell>
        <mxCell id="FiwzwxvVGGpxWFRdpGq9-1" value="UC 21 - Visualizzazione errore invalidArguments" style="ellipse;whiteSpace=wrap;html=1;fontSize=10;" parent="1" vertex="1">
          <mxGeometry x="50" y="430" width="140" height="70" as="geometry" />
        </mxCell>
        <mxCell id="FiwzwxvVGGpxWFRdpGq9-2" value="&amp;lt;&amp;lt;extend&amp;gt;&amp;gt;" style="html=1;verticalAlign=bottom;labelBackgroundColor=none;endArrow=open;endFill=0;dashed=1;rounded=0;entryX=0.5;entryY=1;entryDx=0;entryDy=0;entryPerimeter=0;exitX=0.5;exitY=0;exitDx=0;exitDy=0;fontSize=10;" parent="1" source="FiwzwxvVGGpxWFRdpGq9-1" target="ksHoMfuuDVqSO_xDfYWN-3" edge="1">
          <mxGeometry width="160" relative="1" as="geometry">
            <mxPoint x="160" y="440" as="sourcePoint" />
            <mxPoint x="320" y="440" as="targetPoint" />
          </mxGeometry>
        </mxCell>
        <mxCell id="aBFkLHW6gY48qFtBb5Xp-1" value="&lt;font&gt;condition: Se l&#39;utente seleziona un&#39;intervallo dove all&#39;interno non ci sono dati, viene avvisato graficamente&lt;/font&gt;&lt;div&gt;&lt;font&gt;extension point: errore&amp;nbsp;&lt;span style=&quot;text-align: center;&quot;&gt;invalidArguments&lt;/span&gt;&lt;br&gt;&lt;/font&gt;&lt;div&gt;&lt;br&gt;&lt;/div&gt;&lt;/div&gt;" style="shape=note;size=15;align=left;spacingLeft=10;html=1;whiteSpace=wrap;fontSize=10;" parent="1" vertex="1">
          <mxGeometry x="210" y="390" width="213.5" height="80" as="geometry" />
        </mxCell>
        <mxCell id="aBFkLHW6gY48qFtBb5Xp-2" value="" style="endArrow=none;dashed=1;html=1;rounded=0;entryX=0;entryY=0;entryDx=0;entryDy=0;entryPerimeter=0;fontSize=10;" parent="1" source="aBFkLHW6gY48qFtBb5Xp-3" target="aBFkLHW6gY48qFtBb5Xp-1" edge="1">
          <mxGeometry width="50" height="50" relative="1" as="geometry">
            <mxPoint x="203.5" y="370" as="sourcePoint" />
            <mxPoint x="430.5" y="365" as="targetPoint" />
          </mxGeometry>
        </mxCell>
        <mxCell id="aBFkLHW6gY48qFtBb5Xp-3" value="" style="ellipse;whiteSpace=wrap;html=1;aspect=fixed;fontSize=10;" parent="1" vertex="1">
          <mxGeometry x="140" y="410" width="10" height="10" as="geometry" />
        </mxCell>
      </root>
    </mxGraphModel>
  </diagram>
  <diagram name="UC 14" id="68WRH3UuKaJ8UtKphP0C">
    <mxGraphModel dx="2261" dy="738" grid="1" gridSize="10" guides="1" tooltips="1" connect="1" arrows="1" fold="1" page="1" pageScale="1" pageWidth="827" pageHeight="1169" math="0" shadow="0">
      <root>
        <mxCell id="0" />
        <mxCell id="1" parent="0" />
        <mxCell id="8N7wR37zb5XQ2mCekJud-1" value="" style="rounded=0;whiteSpace=wrap;html=1;fontSize=10;" parent="1" vertex="1">
          <mxGeometry x="-100" y="260" width="820" height="331" as="geometry" />
        </mxCell>
        <mxCell id="msNfBOh4D3h6N5izv2L1-1" value="Utente Finale" style="shape=umlActor;verticalLabelPosition=bottom;verticalAlign=top;html=1;outlineConnect=0;fontSize=10;" parent="1" vertex="1">
          <mxGeometry x="-180" y="290" width="30" height="60" as="geometry" />
        </mxCell>
        <mxCell id="msNfBOh4D3h6N5izv2L1-4" value="&lt;font style=&quot;font-size: 18px;&quot;&gt;3Dataviz&lt;/font&gt;" style="text;html=1;align=center;verticalAlign=middle;resizable=0;points=[];autosize=1;strokeColor=none;fillColor=none;fontSize=10;" parent="1" vertex="1">
          <mxGeometry x="-100" y="220" width="90" height="40" as="geometry" />
        </mxCell>
        <mxCell id="msNfBOh4D3h6N5izv2L1-6" value="" style="line;strokeWidth=1;fillColor=none;align=left;verticalAlign=middle;spacingTop=-1;spacingLeft=3;spacingRight=3;rotatable=0;labelPosition=right;points=[];portConstraint=eastwest;strokeColor=inherit;fontSize=10;" parent="1" vertex="1">
          <mxGeometry x="-150" y="316" width="190" height="8" as="geometry" />
        </mxCell>
        <mxCell id="ruLOzUBOd8NdYT3QMPcN-1" value="&lt;div&gt;&lt;span style=&quot;background-color: transparent; color: light-dark(rgb(0, 0, 0), rgb(255, 255, 255));&quot;&gt;UC 14&amp;nbsp;&lt;/span&gt;Visualizzazione della media in base al valore di X&lt;br&gt;extension points&lt;div&gt;Errore emptyField&lt;/div&gt;&lt;div&gt;Errore invalidArguments&lt;/div&gt;&lt;/div&gt;" style="html=1;shape=mxgraph.sysml.useCaseExtPt;whiteSpace=wrap;align=center;fontSize=10;" parent="1" vertex="1">
          <mxGeometry x="30" y="280" width="290" height="80" as="geometry" />
        </mxCell>
        <mxCell id="ruLOzUBOd8NdYT3QMPcN-2" value="" style="resizable=0;html=1;verticalAlign=middle;align=center;labelBackgroundColor=none;fontStyle=1;fontSize=10;" parent="ruLOzUBOd8NdYT3QMPcN-1" connectable="0" vertex="1">
          <mxGeometry x="145.00000000000006" y="17" as="geometry" />
        </mxCell>
        <mxCell id="eDDV3zgxcNsTQfXKtwW--1" value="UC 25 - Visualizzazione errore emptyField" style="ellipse;whiteSpace=wrap;html=1;fontSize=10;" parent="1" vertex="1">
          <mxGeometry x="200" y="430" width="140" height="70" as="geometry" />
        </mxCell>
        <mxCell id="eDDV3zgxcNsTQfXKtwW--2" value="&amp;lt;&amp;lt;extend&amp;gt;&amp;gt;" style="html=1;verticalAlign=bottom;labelBackgroundColor=none;endArrow=open;endFill=0;dashed=1;rounded=0;exitX=0.5;exitY=0;exitDx=0;exitDy=0;fontSize=10;entryX=0.407;entryY=0.955;entryDx=0;entryDy=0;entryPerimeter=0;" parent="1" source="eDDV3zgxcNsTQfXKtwW--1" edge="1">
          <mxGeometry x="0.4767" y="1" width="160" relative="1" as="geometry">
            <mxPoint x="-5.409999999999968" y="670" as="sourcePoint" />
            <mxPoint x="162" y="361" as="targetPoint" />
            <mxPoint as="offset" />
          </mxGeometry>
        </mxCell>
        <mxCell id="eDDV3zgxcNsTQfXKtwW--3" value="&lt;font&gt;condition: Se l&#39;utente non seleziona un valore, viene avvisato graficamente&lt;/font&gt;&lt;div&gt;&lt;font&gt;extension point: errore &lt;/font&gt;emptyField&lt;div&gt;&lt;br&gt;&lt;/div&gt;&lt;/div&gt;" style="shape=note;size=15;align=left;spacingLeft=10;html=1;whiteSpace=wrap;fontSize=10;" parent="1" vertex="1">
          <mxGeometry x="-10" y="488" width="213.5" height="80" as="geometry" />
        </mxCell>
        <mxCell id="eDDV3zgxcNsTQfXKtwW--4" value="UC 21 - Visualizzazione errore invalidArguments" style="ellipse;whiteSpace=wrap;html=1;fontSize=10;" parent="1" vertex="1">
          <mxGeometry x="400" y="418" width="140" height="70" as="geometry" />
        </mxCell>
        <mxCell id="eDDV3zgxcNsTQfXKtwW--5" value="&amp;lt;&amp;lt;extend&amp;gt;&amp;gt;" style="html=1;verticalAlign=bottom;labelBackgroundColor=none;endArrow=open;endFill=0;dashed=1;rounded=0;entryX=0.704;entryY=0.935;entryDx=0;entryDy=0;entryPerimeter=0;fontSize=10;exitX=0.5;exitY=0;exitDx=0;exitDy=0;" parent="1" edge="1">
          <mxGeometry x="0.5047" y="6" width="160" relative="1" as="geometry">
            <mxPoint x="487.78999999999996" y="418" as="sourcePoint" />
            <mxPoint x="239.99799999999988" y="359.80000000000007" as="targetPoint" />
            <mxPoint as="offset" />
          </mxGeometry>
        </mxCell>
        <mxCell id="eDDV3zgxcNsTQfXKtwW--6" value="&lt;font&gt;condition: Se l&#39;utente seleziona un valore non conforme alle aspettative viene avvisato graficamente&lt;/font&gt;&lt;div&gt;&lt;font&gt;extension point: errore&amp;nbsp;&lt;span style=&quot;text-align: center;&quot;&gt;invalidArguments&lt;/span&gt;&lt;br&gt;&lt;/font&gt;&lt;div&gt;&lt;br&gt;&lt;/div&gt;&lt;/div&gt;" style="shape=note;size=15;align=left;spacingLeft=10;html=1;whiteSpace=wrap;fontSize=10;" parent="1" vertex="1">
          <mxGeometry x="480" y="300" width="213.5" height="80" as="geometry" />
        </mxCell>
        <mxCell id="eDDV3zgxcNsTQfXKtwW--7" value="" style="endArrow=none;dashed=1;html=1;rounded=0;fontSize=10;exitX=1;exitY=0.5;exitDx=0;exitDy=0;" parent="1" source="bXqNjoJTHub-8JqUb_MQ-2" edge="1">
          <mxGeometry width="50" height="50" relative="1" as="geometry">
            <mxPoint x="390" y="220" as="sourcePoint" />
            <mxPoint x="475" y="362" as="targetPoint" />
          </mxGeometry>
        </mxCell>
        <mxCell id="eDDV3zgxcNsTQfXKtwW--8" value="" style="endArrow=none;dashed=1;html=1;rounded=0;fontSize=10;entryX=-0.052;entryY=1.036;entryDx=0;entryDy=0;entryPerimeter=0;" parent="1" source="eDDV3zgxcNsTQfXKtwW--3" edge="1">
          <mxGeometry width="50" height="50" relative="1" as="geometry">
            <mxPoint x="140" y="436" as="sourcePoint" />
            <mxPoint x="229" y="410" as="targetPoint" />
          </mxGeometry>
        </mxCell>
        <mxCell id="bXqNjoJTHub-8JqUb_MQ-1" value="" style="ellipse;whiteSpace=wrap;html=1;aspect=fixed;fontSize=10;" parent="1" vertex="1">
          <mxGeometry x="230" y="400" width="10" height="10" as="geometry" />
        </mxCell>
        <mxCell id="bXqNjoJTHub-8JqUb_MQ-2" value="" style="ellipse;whiteSpace=wrap;html=1;aspect=fixed;fontSize=10;" parent="1" vertex="1">
          <mxGeometry x="390" y="390" width="10" height="10" as="geometry" />
        </mxCell>
      </root>
    </mxGraphModel>
  </diagram>
  <diagram name="UC 15" id="am5QitRDXMZYSPL3vhl3">
    <mxGraphModel dx="2261" dy="738" grid="1" gridSize="10" guides="1" tooltips="1" connect="1" arrows="1" fold="1" page="1" pageScale="1" pageWidth="827" pageHeight="1169" math="0" shadow="0">
      <root>
        <mxCell id="aDMQGO6THXQUFDcwL7Mu-0" />
        <mxCell id="aDMQGO6THXQUFDcwL7Mu-1" parent="aDMQGO6THXQUFDcwL7Mu-0" />
        <mxCell id="aDMQGO6THXQUFDcwL7Mu-2" value="" style="rounded=0;whiteSpace=wrap;html=1;fontSize=10;" parent="aDMQGO6THXQUFDcwL7Mu-1" vertex="1">
          <mxGeometry x="-100" y="260" width="820" height="320" as="geometry" />
        </mxCell>
        <mxCell id="aDMQGO6THXQUFDcwL7Mu-3" value="Utente Finale" style="shape=umlActor;verticalLabelPosition=bottom;verticalAlign=top;html=1;outlineConnect=0;fontSize=10;" parent="aDMQGO6THXQUFDcwL7Mu-1" vertex="1">
          <mxGeometry x="-180" y="290" width="30" height="60" as="geometry" />
        </mxCell>
        <mxCell id="aDMQGO6THXQUFDcwL7Mu-4" value="&lt;font style=&quot;font-size: 18px;&quot;&gt;3Dataviz&lt;/font&gt;" style="text;html=1;align=center;verticalAlign=middle;resizable=0;points=[];autosize=1;strokeColor=none;fillColor=none;fontSize=10;" parent="aDMQGO6THXQUFDcwL7Mu-1" vertex="1">
          <mxGeometry x="-100" y="220" width="90" height="40" as="geometry" />
        </mxCell>
        <mxCell id="aDMQGO6THXQUFDcwL7Mu-5" value="" style="line;strokeWidth=1;fillColor=none;align=left;verticalAlign=middle;spacingTop=-1;spacingLeft=3;spacingRight=3;rotatable=0;labelPosition=right;points=[];portConstraint=eastwest;strokeColor=inherit;fontSize=10;" parent="aDMQGO6THXQUFDcwL7Mu-1" vertex="1">
          <mxGeometry x="-150" y="316" width="190" height="8" as="geometry" />
        </mxCell>
        <mxCell id="aDMQGO6THXQUFDcwL7Mu-7" value="&lt;div&gt;&lt;span style=&quot;background-color: transparent; color: light-dark(rgb(0, 0, 0), rgb(255, 255, 255));&quot;&gt;UC 15&amp;nbsp;&lt;/span&gt;Visualizzazione della media in base al valore di Z&lt;br&gt;extension points&lt;div&gt;Errore emptyField&lt;/div&gt;&lt;div&gt;Errore invalidArguments&lt;/div&gt;&lt;/div&gt;" style="html=1;shape=mxgraph.sysml.useCaseExtPt;whiteSpace=wrap;align=center;fontSize=10;" parent="aDMQGO6THXQUFDcwL7Mu-1" vertex="1">
          <mxGeometry x="40" y="270" width="280" height="90" as="geometry" />
        </mxCell>
        <mxCell id="aDMQGO6THXQUFDcwL7Mu-8" value="" style="resizable=0;html=1;verticalAlign=middle;align=center;labelBackgroundColor=none;fontStyle=1;fontSize=10;" parent="aDMQGO6THXQUFDcwL7Mu-7" connectable="0" vertex="1">
          <mxGeometry x="140.00000000000003" y="19.125" as="geometry" />
        </mxCell>
        <mxCell id="aDMQGO6THXQUFDcwL7Mu-9" value="UC 25 - Visualizzazione errore emptyField" style="ellipse;whiteSpace=wrap;html=1;fontSize=10;" parent="aDMQGO6THXQUFDcwL7Mu-1" vertex="1">
          <mxGeometry x="200" y="430" width="140" height="70" as="geometry" />
        </mxCell>
        <mxCell id="aDMQGO6THXQUFDcwL7Mu-10" value="&amp;lt;&amp;lt;extend&amp;gt;&amp;gt;" style="html=1;verticalAlign=bottom;labelBackgroundColor=none;endArrow=open;endFill=0;dashed=1;rounded=0;exitX=0.5;exitY=0;exitDx=0;exitDy=0;fontSize=10;entryX=0.407;entryY=0.955;entryDx=0;entryDy=0;entryPerimeter=0;" parent="aDMQGO6THXQUFDcwL7Mu-1" source="aDMQGO6THXQUFDcwL7Mu-9" edge="1">
          <mxGeometry x="0.4767" y="1" width="160" relative="1" as="geometry">
            <mxPoint x="-5.409999999999968" y="670" as="sourcePoint" />
            <mxPoint x="162" y="361" as="targetPoint" />
            <mxPoint as="offset" />
          </mxGeometry>
        </mxCell>
        <mxCell id="aDMQGO6THXQUFDcwL7Mu-11" value="&lt;div&gt;&lt;div&gt;condition: Se l&#39;utente non seleziona un valore, viene avvisato graficamente&lt;div&gt;extension point: errore emptyField&lt;div&gt;&lt;br&gt;&lt;/div&gt;&lt;/div&gt;&lt;/div&gt;&lt;/div&gt;" style="shape=note;size=15;align=left;spacingLeft=10;html=1;whiteSpace=wrap;fontSize=10;" parent="aDMQGO6THXQUFDcwL7Mu-1" vertex="1">
          <mxGeometry x="-10" y="488" width="213.5" height="80" as="geometry" />
        </mxCell>
        <mxCell id="aDMQGO6THXQUFDcwL7Mu-12" value="UC 21 - Visualizzazione errore invalidArguments" style="ellipse;whiteSpace=wrap;html=1;fontSize=10;" parent="aDMQGO6THXQUFDcwL7Mu-1" vertex="1">
          <mxGeometry x="400" y="418" width="140" height="70" as="geometry" />
        </mxCell>
        <mxCell id="aDMQGO6THXQUFDcwL7Mu-13" value="&amp;lt;&amp;lt;extend&amp;gt;&amp;gt;" style="html=1;verticalAlign=bottom;labelBackgroundColor=none;endArrow=open;endFill=0;dashed=1;rounded=0;entryX=0.704;entryY=0.935;entryDx=0;entryDy=0;entryPerimeter=0;fontSize=10;exitX=0.5;exitY=0;exitDx=0;exitDy=0;" parent="aDMQGO6THXQUFDcwL7Mu-1" edge="1">
          <mxGeometry x="0.5047" y="6" width="160" relative="1" as="geometry">
            <mxPoint x="487.78999999999996" y="418" as="sourcePoint" />
            <mxPoint x="239.99799999999988" y="359.80000000000007" as="targetPoint" />
            <mxPoint as="offset" />
          </mxGeometry>
        </mxCell>
        <mxCell id="aDMQGO6THXQUFDcwL7Mu-14" value="&lt;div&gt;&lt;div&gt;condition: Se l&#39;utente seleziona un valore non conforme alle aspettative viene avvisato graficamente&lt;div&gt;extension point: errore&amp;nbsp;&lt;span style=&quot;text-align: center;&quot;&gt;invalidArguments&lt;/span&gt;&lt;br&gt;&lt;div&gt;&lt;br&gt;&lt;/div&gt;&lt;/div&gt;&lt;/div&gt;&lt;/div&gt;" style="shape=note;size=15;align=left;spacingLeft=10;html=1;whiteSpace=wrap;fontSize=10;" parent="aDMQGO6THXQUFDcwL7Mu-1" vertex="1">
          <mxGeometry x="480" y="300" width="213.5" height="80" as="geometry" />
        </mxCell>
        <mxCell id="aDMQGO6THXQUFDcwL7Mu-15" value="" style="endArrow=none;dashed=1;html=1;rounded=0;fontSize=10;exitX=1;exitY=0.5;exitDx=0;exitDy=0;" parent="aDMQGO6THXQUFDcwL7Mu-1" source="lRY-n5Msr5RIKpWGIaoc-1" edge="1">
          <mxGeometry width="50" height="50" relative="1" as="geometry">
            <mxPoint x="375" y="390" as="sourcePoint" />
            <mxPoint x="475" y="362" as="targetPoint" />
          </mxGeometry>
        </mxCell>
        <mxCell id="aDMQGO6THXQUFDcwL7Mu-16" value="" style="endArrow=none;dashed=1;html=1;rounded=0;fontSize=10;entryX=-0.052;entryY=1.036;entryDx=0;entryDy=0;entryPerimeter=0;" parent="aDMQGO6THXQUFDcwL7Mu-1" source="aDMQGO6THXQUFDcwL7Mu-11" edge="1">
          <mxGeometry width="50" height="50" relative="1" as="geometry">
            <mxPoint x="140" y="436" as="sourcePoint" />
            <mxPoint x="229" y="410" as="targetPoint" />
          </mxGeometry>
        </mxCell>
        <mxCell id="lRY-n5Msr5RIKpWGIaoc-0" value="" style="ellipse;whiteSpace=wrap;html=1;aspect=fixed;fontSize=10;" parent="aDMQGO6THXQUFDcwL7Mu-1" vertex="1">
          <mxGeometry x="230" y="400" width="10" height="10" as="geometry" />
        </mxCell>
        <mxCell id="lRY-n5Msr5RIKpWGIaoc-1" value="" style="ellipse;whiteSpace=wrap;html=1;aspect=fixed;fontSize=10;" parent="aDMQGO6THXQUFDcwL7Mu-1" vertex="1">
          <mxGeometry x="370" y="390" width="10" height="10" as="geometry" />
        </mxCell>
      </root>
    </mxGraphModel>
  </diagram>
  <diagram name="UC 16" id="Cm1E0B7hYaAiDakvKrOK">
    <mxGraphModel dx="2261" dy="738" grid="1" gridSize="10" guides="1" tooltips="1" connect="1" arrows="1" fold="1" page="1" pageScale="1" pageWidth="827" pageHeight="1169" math="0" shadow="0">
      <root>
        <mxCell id="0" />
        <mxCell id="1" parent="0" />
        <mxCell id="n8evKuZici2UyTZOqQdr-1" value="Utente Finale" style="shape=umlActor;verticalLabelPosition=bottom;verticalAlign=top;html=1;outlineConnect=0;fontSize=10;" parent="1" vertex="1">
          <mxGeometry x="-180" y="290" width="30" height="60" as="geometry" />
        </mxCell>
        <mxCell id="n8evKuZici2UyTZOqQdr-2" value="" style="rounded=0;whiteSpace=wrap;html=1;fontSize=10;" parent="1" vertex="1">
          <mxGeometry x="-80" y="275" width="270" height="85" as="geometry" />
        </mxCell>
        <mxCell id="n8evKuZici2UyTZOqQdr-4" value="&lt;font style=&quot;font-size: 18px;&quot;&gt;3Dataviz&lt;/font&gt;" style="text;html=1;align=center;verticalAlign=middle;resizable=0;points=[];autosize=1;strokeColor=none;fillColor=none;fontSize=10;" parent="1" vertex="1">
          <mxGeometry x="-80" y="235" width="90" height="40" as="geometry" />
        </mxCell>
        <mxCell id="n8evKuZici2UyTZOqQdr-6" value="" style="line;strokeWidth=1;fillColor=none;align=left;verticalAlign=middle;spacingTop=-1;spacingLeft=3;spacingRight=3;rotatable=0;labelPosition=right;points=[];portConstraint=eastwest;strokeColor=inherit;fontSize=10;" parent="1" vertex="1">
          <mxGeometry x="-150" y="316" width="190" height="8" as="geometry" />
        </mxCell>
        <mxCell id="n8evKuZici2UyTZOqQdr-50" value="UC 16 - Visualizzazione degli N valori maggiori" style="ellipse;whiteSpace=wrap;html=1;fontSize=10;" parent="1" vertex="1">
          <mxGeometry x="40" y="285" width="140" height="70" as="geometry" />
        </mxCell>
      </root>
    </mxGraphModel>
  </diagram>
  <diagram name="UC 17" id="7RvPbElOVoy4fIS4gZFc">
    <mxGraphModel dx="2261" dy="738" grid="1" gridSize="10" guides="1" tooltips="1" connect="1" arrows="1" fold="1" page="1" pageScale="1" pageWidth="827" pageHeight="1169" math="0" shadow="0">
      <root>
        <mxCell id="0" />
        <mxCell id="1" parent="0" />
        <mxCell id="2_KVQPm1CK9m7SotP20E-1" value="Utente Finale" style="shape=umlActor;verticalLabelPosition=bottom;verticalAlign=top;html=1;outlineConnect=0;fontSize=10;" parent="1" vertex="1">
          <mxGeometry x="-180" y="290" width="30" height="60" as="geometry" />
        </mxCell>
        <mxCell id="2_KVQPm1CK9m7SotP20E-2" value="" style="rounded=0;whiteSpace=wrap;html=1;fontSize=10;" parent="1" vertex="1">
          <mxGeometry x="-80" y="275" width="270" height="85" as="geometry" />
        </mxCell>
        <mxCell id="2_KVQPm1CK9m7SotP20E-4" value="&lt;font style=&quot;font-size: 18px;&quot;&gt;3Dataviz&lt;/font&gt;" style="text;html=1;align=center;verticalAlign=middle;resizable=0;points=[];autosize=1;strokeColor=none;fillColor=none;fontSize=10;" parent="1" vertex="1">
          <mxGeometry x="-80" y="235" width="90" height="40" as="geometry" />
        </mxCell>
        <mxCell id="2_KVQPm1CK9m7SotP20E-6" value="" style="line;strokeWidth=1;fillColor=none;align=left;verticalAlign=middle;spacingTop=-1;spacingLeft=3;spacingRight=3;rotatable=0;labelPosition=right;points=[];portConstraint=eastwest;strokeColor=inherit;fontSize=10;" parent="1" vertex="1">
          <mxGeometry x="-150" y="316" width="190" height="8" as="geometry" />
        </mxCell>
        <mxCell id="2_KVQPm1CK9m7SotP20E-50" value="UC 17 - Visualizzazione degli N valori minori" style="ellipse;whiteSpace=wrap;html=1;fontSize=10;" parent="1" vertex="1">
          <mxGeometry x="40" y="285" width="140" height="70" as="geometry" />
        </mxCell>
      </root>
    </mxGraphModel>
  </diagram>
  <diagram name="UC 18" id="1WCt0B2HwAVWBRV3QZHB">
    <mxGraphModel dx="1434" dy="738" grid="1" gridSize="10" guides="1" tooltips="1" connect="1" arrows="1" fold="1" page="1" pageScale="1" pageWidth="827" pageHeight="1169" math="0" shadow="0">
      <root>
        <mxCell id="0" />
        <mxCell id="1" parent="0" />
        <mxCell id="0Z0yLcZh09KTsS7ZddR2-3" value="Utente Finale" style="shape=umlActor;verticalLabelPosition=bottom;verticalAlign=top;html=1;outlineConnect=0;fontSize=10;" parent="1" vertex="1">
          <mxGeometry x="160" y="285" width="30" height="60" as="geometry" />
        </mxCell>
        <mxCell id="pCiMdDx6cYsSALncKqj4-1" value="" style="rounded=0;whiteSpace=wrap;html=1;fontSize=10;" parent="1" vertex="1">
          <mxGeometry x="260" y="270" width="280" height="85" as="geometry" />
        </mxCell>
        <mxCell id="pCiMdDx6cYsSALncKqj4-2" value="&lt;font style=&quot;font-size: 18px;&quot;&gt;3Dataviz&lt;/font&gt;" style="text;html=1;align=center;verticalAlign=middle;resizable=0;points=[];autosize=1;strokeColor=none;fillColor=none;fontSize=10;" parent="1" vertex="1">
          <mxGeometry x="260" y="230" width="90" height="40" as="geometry" />
        </mxCell>
        <mxCell id="pCiMdDx6cYsSALncKqj4-3" value="" style="line;strokeWidth=1;fillColor=none;align=left;verticalAlign=middle;spacingTop=-1;spacingLeft=3;spacingRight=3;rotatable=0;labelPosition=right;points=[];portConstraint=eastwest;strokeColor=inherit;fontSize=10;" parent="1" vertex="1">
          <mxGeometry x="190" y="311" width="190" height="8" as="geometry" />
        </mxCell>
        <mxCell id="pCiMdDx6cYsSALncKqj4-5" value="UC 18 - Reset dei filtri applicati alla visualizzazione dei dati" style="ellipse;whiteSpace=wrap;html=1;fontSize=10;" parent="1" vertex="1">
          <mxGeometry x="380" y="280" width="140" height="70" as="geometry" />
        </mxCell>
      </root>
    </mxGraphModel>
  </diagram>
  <diagram name="UC 19" id="629FFVsSphPi_Ae1UkSC">
    <mxGraphModel dx="1434" dy="738" grid="1" gridSize="10" guides="1" tooltips="1" connect="1" arrows="1" fold="1" page="1" pageScale="1" pageWidth="827" pageHeight="1169" math="0" shadow="0">
      <root>
        <mxCell id="0" />
        <mxCell id="1" parent="0" />
        <mxCell id="DsSKqcITb16lZmEfsZm8-1" value="Utente Finale" style="shape=umlActor;verticalLabelPosition=bottom;verticalAlign=top;html=1;outlineConnect=0;fontSize=10;" parent="1" vertex="1">
          <mxGeometry x="160" y="285" width="30" height="60" as="geometry" />
        </mxCell>
        <mxCell id="DsSKqcITb16lZmEfsZm8-2" value="" style="rounded=0;whiteSpace=wrap;html=1;fontSize=10;" parent="1" vertex="1">
          <mxGeometry x="260" y="270" width="280" height="85" as="geometry" />
        </mxCell>
        <mxCell id="DsSKqcITb16lZmEfsZm8-3" value="&lt;font style=&quot;font-size: 19px;&quot;&gt;3Dataviz&lt;/font&gt;" style="text;html=1;align=center;verticalAlign=middle;resizable=0;points=[];autosize=1;strokeColor=none;fillColor=none;fontSize=10;" parent="1" vertex="1">
          <mxGeometry x="260" y="230" width="100" height="40" as="geometry" />
        </mxCell>
        <mxCell id="DsSKqcITb16lZmEfsZm8-4" value="" style="line;strokeWidth=1;fillColor=none;align=left;verticalAlign=middle;spacingTop=-1;spacingLeft=3;spacingRight=3;rotatable=0;labelPosition=right;points=[];portConstraint=eastwest;strokeColor=inherit;fontSize=10;" parent="1" vertex="1">
          <mxGeometry x="190" y="311" width="190" height="8" as="geometry" />
        </mxCell>
        <mxCell id="DsSKqcITb16lZmEfsZm8-6" value="UC 19 - Esportazione di un grafico" style="ellipse;whiteSpace=wrap;html=1;fontSize=10;" parent="1" vertex="1">
          <mxGeometry x="380" y="280" width="140" height="70" as="geometry" />
        </mxCell>
      </root>
    </mxGraphModel>
  </diagram>
  <diagram name="UC 20" id="kOR766YAhHD1cmKgy9Er">
    <mxGraphModel dx="1434" dy="738" grid="1" gridSize="10" guides="1" tooltips="1" connect="1" arrows="1" fold="1" page="1" pageScale="1" pageWidth="827" pageHeight="1169" math="0" shadow="0">
      <root>
        <mxCell id="0" />
        <mxCell id="1" parent="0" />
        <mxCell id="VPT4CymFx6ydWhbt580H-1" value="Utente Finale" style="shape=umlActor;verticalLabelPosition=bottom;verticalAlign=top;html=1;outlineConnect=0;fontSize=10;" parent="1" vertex="1">
          <mxGeometry x="160" y="285" width="30" height="60" as="geometry" />
        </mxCell>
        <mxCell id="VPT4CymFx6ydWhbt580H-2" value="" style="rounded=0;whiteSpace=wrap;html=1;fontSize=10;" parent="1" vertex="1">
          <mxGeometry x="260" y="270" width="280" height="85" as="geometry" />
        </mxCell>
        <mxCell id="VPT4CymFx6ydWhbt580H-3" value="&lt;font style=&quot;font-size: 18px;&quot;&gt;3Dataviz&lt;/font&gt;" style="text;html=1;align=center;verticalAlign=middle;resizable=0;points=[];autosize=1;strokeColor=none;fillColor=none;fontSize=10;" parent="1" vertex="1">
          <mxGeometry x="260" y="230" width="90" height="40" as="geometry" />
        </mxCell>
        <mxCell id="VPT4CymFx6ydWhbt580H-4" value="" style="line;strokeWidth=1;fillColor=none;align=left;verticalAlign=middle;spacingTop=-1;spacingLeft=3;spacingRight=3;rotatable=0;labelPosition=right;points=[];portConstraint=eastwest;strokeColor=inherit;fontSize=10;" parent="1" vertex="1">
          <mxGeometry x="190" y="311" width="190" height="8" as="geometry" />
        </mxCell>
        <mxCell id="VPT4CymFx6ydWhbt580H-6" value="UC 20 - Creazione di un&#39;istantanea del grafico" style="ellipse;whiteSpace=wrap;html=1;fontSize=10;" parent="1" vertex="1">
          <mxGeometry x="380" y="280" width="140" height="70" as="geometry" />
        </mxCell>
      </root>
    </mxGraphModel>
  </diagram>
  <diagram name="UC 21" id="CBLkMJ3J49-6jQAL46Xb">
    <mxGraphModel dx="1434" dy="738" grid="1" gridSize="10" guides="1" tooltips="1" connect="1" arrows="1" fold="1" page="1" pageScale="1" pageWidth="827" pageHeight="1169" math="0" shadow="0">
      <root>
        <mxCell id="0" />
        <mxCell id="1" parent="0" />
        <mxCell id="_VHx0LLIEGOA-RYXqkBj-1" value="Utente Finale" style="shape=umlActor;verticalLabelPosition=bottom;verticalAlign=top;html=1;outlineConnect=0;fontSize=10;" parent="1" vertex="1">
          <mxGeometry x="160" y="285" width="30" height="60" as="geometry" />
        </mxCell>
        <mxCell id="_VHx0LLIEGOA-RYXqkBj-2" value="" style="rounded=0;whiteSpace=wrap;html=1;fontSize=10;" parent="1" vertex="1">
          <mxGeometry x="260" y="270" width="280" height="85" as="geometry" />
        </mxCell>
        <mxCell id="_VHx0LLIEGOA-RYXqkBj-3" value="&lt;font style=&quot;font-size: 18px;&quot;&gt;3Dataviz&lt;/font&gt;" style="text;html=1;align=center;verticalAlign=middle;resizable=0;points=[];autosize=1;strokeColor=none;fillColor=none;fontSize=10;" parent="1" vertex="1">
          <mxGeometry x="260" y="230" width="90" height="40" as="geometry" />
        </mxCell>
        <mxCell id="_VHx0LLIEGOA-RYXqkBj-4" value="" style="line;strokeWidth=1;fillColor=none;align=left;verticalAlign=middle;spacingTop=-1;spacingLeft=3;spacingRight=3;rotatable=0;labelPosition=right;points=[];portConstraint=eastwest;strokeColor=inherit;fontSize=10;" parent="1" vertex="1">
          <mxGeometry x="190" y="311" width="190" height="8" as="geometry" />
        </mxCell>
        <mxCell id="_VHx0LLIEGOA-RYXqkBj-6" value="UC 21 - Visualizzazione errore invalidArguments" style="ellipse;whiteSpace=wrap;html=1;fontSize=10;" parent="1" vertex="1">
          <mxGeometry x="380" y="280" width="140" height="70" as="geometry" />
        </mxCell>
      </root>
    </mxGraphModel>
  </diagram>
  <diagram name="UC 22" id="GEaklZRsppNZu2AvIqqG">
    <mxGraphModel dx="1434" dy="738" grid="1" gridSize="10" guides="1" tooltips="1" connect="1" arrows="1" fold="1" page="1" pageScale="1" pageWidth="827" pageHeight="1169" math="0" shadow="0">
      <root>
        <mxCell id="0" />
        <mxCell id="1" parent="0" />
        <mxCell id="sLnyCnXFzcwTUGdNXQbv-1" value="&#xa;Utente Finale&#xa;&#xa;" style="shape=umlActor;verticalLabelPosition=bottom;verticalAlign=top;html=1;outlineConnect=0;fontSize=10;" parent="1" vertex="1">
          <mxGeometry x="160" y="285" width="30" height="60" as="geometry" />
        </mxCell>
        <mxCell id="sLnyCnXFzcwTUGdNXQbv-2" value="" style="rounded=0;whiteSpace=wrap;html=1;fontSize=10;" parent="1" vertex="1">
          <mxGeometry x="260" y="270" width="280" height="85" as="geometry" />
        </mxCell>
        <mxCell id="sLnyCnXFzcwTUGdNXQbv-3" value="&lt;font style=&quot;font-size: 18px;&quot;&gt;3Dataviz&lt;/font&gt;" style="text;html=1;align=center;verticalAlign=middle;resizable=0;points=[];autosize=1;strokeColor=none;fillColor=none;fontSize=10;" parent="1" vertex="1">
          <mxGeometry x="260" y="230" width="90" height="40" as="geometry" />
        </mxCell>
        <mxCell id="sLnyCnXFzcwTUGdNXQbv-4" value="" style="line;strokeWidth=1;fillColor=none;align=left;verticalAlign=middle;spacingTop=-1;spacingLeft=3;spacingRight=3;rotatable=0;labelPosition=right;points=[];portConstraint=eastwest;strokeColor=inherit;fontSize=10;" parent="1" vertex="1">
          <mxGeometry x="190" y="311" width="190" height="8" as="geometry" />
        </mxCell>
        <mxCell id="sLnyCnXFzcwTUGdNXQbv-6" value="UC 22 - Visualizzazione errore tooMuchData" style="ellipse;whiteSpace=wrap;html=1;fontSize=10;align=center;" parent="1" vertex="1">
          <mxGeometry x="380" y="280" width="140" height="70" as="geometry" />
        </mxCell>
        <mxCell id="F_zy4XmwtUq2av42C1bk-1" value="&amp;nbsp;" style="text;whiteSpace=wrap;html=1;" vertex="1" parent="1">
          <mxGeometry x="260" y="480" width="40" height="40" as="geometry" />
        </mxCell>
      </root>
    </mxGraphModel>
  </diagram>
  <diagram name="UC 23" id="9WhNbEVZRL-GM3CUHrU9">
    <mxGraphModel dx="1434" dy="738" grid="1" gridSize="10" guides="1" tooltips="1" connect="1" arrows="1" fold="1" page="1" pageScale="1" pageWidth="827" pageHeight="1169" math="0" shadow="0">
      <root>
        <mxCell id="0" />
        <mxCell id="1" parent="0" />
        <mxCell id="lD2gQy1YnsYi5LOIrAVr-1" value="&#xa;Utente Finale&#xa;&#xa;" style="shape=umlActor;verticalLabelPosition=bottom;verticalAlign=top;html=1;outlineConnect=0;fontSize=10;" parent="1" vertex="1">
          <mxGeometry x="160" y="285" width="30" height="60" as="geometry" />
        </mxCell>
        <mxCell id="lD2gQy1YnsYi5LOIrAVr-2" value="" style="rounded=0;whiteSpace=wrap;html=1;fontSize=10;" parent="1" vertex="1">
          <mxGeometry x="260" y="270" width="280" height="85" as="geometry" />
        </mxCell>
        <mxCell id="lD2gQy1YnsYi5LOIrAVr-3" value="&lt;font style=&quot;font-size: 18px;&quot;&gt;3Dataviz&lt;/font&gt;" style="text;html=1;align=center;verticalAlign=middle;resizable=0;points=[];autosize=1;strokeColor=none;fillColor=none;fontSize=10;" parent="1" vertex="1">
          <mxGeometry x="260" y="230" width="90" height="40" as="geometry" />
        </mxCell>
        <mxCell id="lD2gQy1YnsYi5LOIrAVr-4" value="" style="line;strokeWidth=1;fillColor=none;align=left;verticalAlign=middle;spacingTop=-1;spacingLeft=3;spacingRight=3;rotatable=0;labelPosition=right;points=[];portConstraint=eastwest;strokeColor=inherit;fontSize=10;" parent="1" vertex="1">
          <mxGeometry x="190" y="311" width="190" height="8" as="geometry" />
        </mxCell>
        <mxCell id="lD2gQy1YnsYi5LOIrAVr-6" value="UC 23 - Visualizzazione errore invalidCsv" style="ellipse;whiteSpace=wrap;html=1;fontSize=10;align=center;" parent="1" vertex="1">
          <mxGeometry x="380" y="280" width="140" height="70" as="geometry" />
        </mxCell>
      </root>
    </mxGraphModel>
  </diagram>
  <diagram name="UC 24" id="fBHrj54C84EFwOaJpcd6">
    <mxGraphModel dx="1434" dy="738" grid="1" gridSize="10" guides="1" tooltips="1" connect="1" arrows="1" fold="1" page="1" pageScale="1" pageWidth="827" pageHeight="1169" math="0" shadow="0">
      <root>
        <mxCell id="0" />
        <mxCell id="1" parent="0" />
        <mxCell id="wjF8xh5RTk1icyYQy6u5-1" value="&#xa;Utente Finale&#xa;&#xa;" style="shape=umlActor;verticalLabelPosition=bottom;verticalAlign=top;html=1;outlineConnect=0;fontSize=10;" parent="1" vertex="1">
          <mxGeometry x="160" y="285" width="30" height="60" as="geometry" />
        </mxCell>
        <mxCell id="wjF8xh5RTk1icyYQy6u5-2" value="" style="rounded=0;whiteSpace=wrap;html=1;fontSize=10;" parent="1" vertex="1">
          <mxGeometry x="260" y="270" width="280" height="85" as="geometry" />
        </mxCell>
        <mxCell id="wjF8xh5RTk1icyYQy6u5-3" value="&lt;font style=&quot;font-size: 18px;&quot;&gt;3Dataviz&lt;/font&gt;" style="text;html=1;align=center;verticalAlign=middle;resizable=0;points=[];autosize=1;strokeColor=none;fillColor=none;fontSize=10;" parent="1" vertex="1">
          <mxGeometry x="260" y="230" width="90" height="40" as="geometry" />
        </mxCell>
        <mxCell id="wjF8xh5RTk1icyYQy6u5-4" value="" style="line;strokeWidth=1;fillColor=none;align=left;verticalAlign=middle;spacingTop=-1;spacingLeft=3;spacingRight=3;rotatable=0;labelPosition=right;points=[];portConstraint=eastwest;strokeColor=inherit;fontSize=10;" parent="1" vertex="1">
          <mxGeometry x="190" y="311" width="190" height="8" as="geometry" />
        </mxCell>
        <mxCell id="wjF8xh5RTk1icyYQy6u5-6" value="UC 24 - Visualizzazione errore apiTimeout" style="ellipse;whiteSpace=wrap;html=1;fontSize=10;align=center;" parent="1" vertex="1">
          <mxGeometry x="380" y="280" width="140" height="70" as="geometry" />
        </mxCell>
      </root>
    </mxGraphModel>
  </diagram>
  <diagram name="UC 25" id="PahrR-TrOyRsAR8Z-d-z">
    <mxGraphModel dx="1434" dy="738" grid="1" gridSize="10" guides="1" tooltips="1" connect="1" arrows="1" fold="1" page="1" pageScale="1" pageWidth="827" pageHeight="1169" math="0" shadow="0">
      <root>
        <mxCell id="0" />
        <mxCell id="1" parent="0" />
        <mxCell id="UYH4lEpRcDNhQJUflnDp-1" value="&#xa;Utente Finale&#xa;&#xa;" style="shape=umlActor;verticalLabelPosition=bottom;verticalAlign=top;html=1;outlineConnect=0;fontSize=10;" parent="1" vertex="1">
          <mxGeometry x="160" y="285" width="30" height="60" as="geometry" />
        </mxCell>
        <mxCell id="UYH4lEpRcDNhQJUflnDp-2" value="" style="rounded=0;whiteSpace=wrap;html=1;fontSize=10;" parent="1" vertex="1">
          <mxGeometry x="260" y="270" width="280" height="85" as="geometry" />
        </mxCell>
        <mxCell id="UYH4lEpRcDNhQJUflnDp-3" value="&lt;font style=&quot;font-size: 18px;&quot;&gt;3Dataviz&lt;/font&gt;" style="text;html=1;align=center;verticalAlign=middle;resizable=0;points=[];autosize=1;strokeColor=none;fillColor=none;fontSize=10;" parent="1" vertex="1">
          <mxGeometry x="260" y="230" width="90" height="40" as="geometry" />
        </mxCell>
        <mxCell id="UYH4lEpRcDNhQJUflnDp-4" value="" style="line;strokeWidth=1;fillColor=none;align=left;verticalAlign=middle;spacingTop=-1;spacingLeft=3;spacingRight=3;rotatable=0;labelPosition=right;points=[];portConstraint=eastwest;strokeColor=inherit;fontSize=10;" parent="1" vertex="1">
          <mxGeometry x="190" y="311" width="190" height="8" as="geometry" />
        </mxCell>
        <mxCell id="UYH4lEpRcDNhQJUflnDp-6" value="UC 25 - Visualizzazione errore emptyField" style="ellipse;whiteSpace=wrap;html=1;fontSize=10;align=center;" parent="1" vertex="1">
          <mxGeometry x="380" y="280" width="140" height="70" as="geometry" />
        </mxCell>
      </root>
    </mxGraphModel>
  </diagram>
  <diagram name="UC 26" id="4dPbQ667w22qie12GybD">
    <mxGraphModel dx="1434" dy="738" grid="1" gridSize="10" guides="1" tooltips="1" connect="1" arrows="1" fold="1" page="1" pageScale="1" pageWidth="827" pageHeight="1169" math="0" shadow="0">
      <root>
        <mxCell id="0JJSrvx0MiQ0wZhBipMH-0" />
        <mxCell id="0JJSrvx0MiQ0wZhBipMH-1" parent="0JJSrvx0MiQ0wZhBipMH-0" />
        <mxCell id="0JJSrvx0MiQ0wZhBipMH-2" value="&#xa;Utente Finale&#xa;&#xa;" style="shape=umlActor;verticalLabelPosition=bottom;verticalAlign=top;html=1;outlineConnect=0;fontSize=10;" parent="0JJSrvx0MiQ0wZhBipMH-1" vertex="1">
          <mxGeometry x="160" y="285" width="30" height="60" as="geometry" />
        </mxCell>
        <mxCell id="0JJSrvx0MiQ0wZhBipMH-3" value="" style="rounded=0;whiteSpace=wrap;html=1;fontSize=10;" parent="0JJSrvx0MiQ0wZhBipMH-1" vertex="1">
          <mxGeometry x="260" y="270" width="280" height="85" as="geometry" />
        </mxCell>
        <mxCell id="0JJSrvx0MiQ0wZhBipMH-4" value="&lt;font style=&quot;font-size: 18px;&quot;&gt;3Dataviz&lt;/font&gt;" style="text;html=1;align=center;verticalAlign=middle;resizable=0;points=[];autosize=1;strokeColor=none;fillColor=none;fontSize=10;" parent="0JJSrvx0MiQ0wZhBipMH-1" vertex="1">
          <mxGeometry x="260" y="230" width="90" height="40" as="geometry" />
        </mxCell>
        <mxCell id="0JJSrvx0MiQ0wZhBipMH-5" value="" style="line;strokeWidth=1;fillColor=none;align=left;verticalAlign=middle;spacingTop=-1;spacingLeft=3;spacingRight=3;rotatable=0;labelPosition=right;points=[];portConstraint=eastwest;strokeColor=inherit;fontSize=10;" parent="0JJSrvx0MiQ0wZhBipMH-1" vertex="1">
          <mxGeometry x="190" y="311" width="190" height="8" as="geometry" />
        </mxCell>
        <mxCell id="0JJSrvx0MiQ0wZhBipMH-7" value="UC 26 - Visualizzazione errore networkError" style="ellipse;whiteSpace=wrap;html=1;fontSize=10;align=center;" parent="0JJSrvx0MiQ0wZhBipMH-1" vertex="1">
          <mxGeometry x="380" y="280" width="140" height="70" as="geometry" />
        </mxCell>
      </root>
    </mxGraphModel>
  </diagram>
  <diagram name="UC 27" id="_t_hq0OZ2tBqBbQoStA_">
    <mxGraphModel dx="1434" dy="738" grid="1" gridSize="10" guides="1" tooltips="1" connect="1" arrows="1" fold="1" page="1" pageScale="1" pageWidth="827" pageHeight="1169" math="0" shadow="0">
      <root>
        <mxCell id="0" />
        <mxCell id="1" parent="0" />
        <mxCell id="riE_ropiPpaa9Z0OIlMZ-1" value="&#xa;Utente Finale&#xa;&#xa;" style="shape=umlActor;verticalLabelPosition=bottom;verticalAlign=top;html=1;outlineConnect=0;fontSize=10;" parent="1" vertex="1">
          <mxGeometry x="240" y="285" width="30" height="60" as="geometry" />
        </mxCell>
        <mxCell id="riE_ropiPpaa9Z0OIlMZ-2" value="" style="rounded=0;whiteSpace=wrap;html=1;fontSize=10;" parent="1" vertex="1">
          <mxGeometry x="340" y="270" width="280" height="85" as="geometry" />
        </mxCell>
        <mxCell id="riE_ropiPpaa9Z0OIlMZ-3" value="&lt;font style=&quot;font-size: 18px;&quot;&gt;3Dataviz&lt;/font&gt;" style="text;html=1;align=center;verticalAlign=middle;resizable=0;points=[];autosize=1;strokeColor=none;fillColor=none;fontSize=10;" parent="1" vertex="1">
          <mxGeometry x="340" y="230" width="90" height="40" as="geometry" />
        </mxCell>
        <mxCell id="riE_ropiPpaa9Z0OIlMZ-4" value="" style="line;strokeWidth=1;fillColor=none;align=left;verticalAlign=middle;spacingTop=-1;spacingLeft=3;spacingRight=3;rotatable=0;labelPosition=right;points=[];portConstraint=eastwest;strokeColor=inherit;fontSize=10;" parent="1" vertex="1">
          <mxGeometry x="270" y="311" width="190" height="8" as="geometry" />
        </mxCell>
        <mxCell id="riE_ropiPpaa9Z0OIlMZ-6" value="UC 27 - Visualizzazione errore fileTooBig" style="ellipse;whiteSpace=wrap;html=1;fontSize=10;align=center;" parent="1" vertex="1">
          <mxGeometry x="460" y="280" width="140" height="70" as="geometry" />
        </mxCell>
      </root>
    </mxGraphModel>
  </diagram>
</mxfile>
